<svg width="737" height="510" fill="none" xmlns="http://www.w3.org/2000/svg"><path d="M532.1 323c0-9-1.1-18.4-3.3-27.7-18.2 2.5-36.9 3.5-55.6 3.5 6 18.6 6.8 37.9.5 56.5-1.1 3-2.1 6-2.9 9.1-4.5 11.6 1.3 18.9 17.4 22.1 7.3-2.2 13.3-6.1 18.2-12 7.7-9 14.8-18.5 22.1-27.8 1.9-7.7 3.6-15.6 3.6-23.7Zm-46 43.4c-.8 1.3-1.5 2.6-2.6 3.7-.8.8-2.4 0-1.9-1.1.5-1.5 1.4-2.7 2.2-4 .9-1.5 3.3-.1 2.3 1.4Zm9.3-52c-.1 1.2-1.7 1.2-1.8 0-.1-1.8-.1-3.5-.1-5.3 0-1.2 1.9-1.2 1.9 0 .1 1.8.2 3.5 0 5.3Zm10.2 35.1c-.4 1.2-2.2 1-2.2-.3s.2-2.6.4-3.9c.3-1.7 2.9-1 2.6.7-.3 1.2-.5 2.3-.8 3.5Zm21.2-40.7c-.2 1-1.7.8-1.8-.2-.1-1.5-.3-3.5-.6-5-.3-1.6 2.2-2.3 2.5-.7.5 2.1.5 3.7-.1 5.9Z" fill="#9b388a"/><path d="M609.3 195c1.9-11.4 1.1-23 3.1-34.4 2.2-12.7 4.9-24.9 4.5-37.6-.3-.3-.4-.6-.4-1.1.1-1 .1-2.2.1-3.2-.1-.6-.1-1.2-.2-1.8 0-.3.1-.4.2-.6-.2-27.6-12.8-66.2-37.6-79.4-20.8-11-43.4-19.9-66.7-23.7-51.7-8.4-95.3 10-132.9 45.3-32.6 30.6-61.9 60.8-103.4 79.6-17.9 8.1-36.3 14.8-55.5 19.1-22.5 4.9-45.7 8-63.7 23.8-.1.3-.1.5-.2.9-.2 1.1-1.9.8-1.9-.3-.2-12.1-11.9 6-13.6 9-3.2 5.5-6.2 11.2-7.6 17.5-3.9 18.3-.3 34.1 8.6 50.4.1.1 0 .2 0 .3 1.1-.2 2.2-.5 3.4-.7-4.7-5.4-8.3-12.2-10.2-20.7-2.2-10.2 2.6-23.1 12.6-27.6 13.8-6.1 26.3-3.5 39.7 1.3 29-4.6 76.6-16.9 89.2 19.9 2.9 8.4 1.3 15.4-2.9 21.2.8 24.5 13.8 46.5 16.5 71.3.2 2 .4 4 .5 6.1.5.5.6 1.2.2 1.9.6 9.2.5 18.6-1.6 27.6-1.3 5.6-2.9 10.8-4.9 16.1-2.3 5.9-5.5 7.3 2 2.8.8-.5 1.7-.1 2.1.6.8.3 1.3 1.2.6 2.1-7.2 9-8.1 20.3-11.4 30.8.3-.2.5-.5.8-.7 1.4-1 2.6 1.1 1.7 2.2 0 .1-.1.1-.1.2-4 15.3-4 30.9 1.5 45.9 2.4 6.5 5 12.9 8.4 19 .6 1.1 5.5 14.2 8 7.3.4-1.2 2.5-1.1 2.4.3 2.1 1.4 4.2 2.7 6.4 3.9 1.1-2.2 2.1-4.4 3.3-6.5.2-.4.4-.9.7-1.3.5-.9 2.3-.6 2.1.6 0 .2-.1.3-.1.5 12.6 1.9 5.3-34.3 5.3-38.4-.1-9 .4-18.2 3.1-26.9 5.2-16.6 13.8-31.4 23.3-45.9 28.3-43 45.9-86.8 35.9-139.3-.3-1.8 1.8-2.6 2.8-1.6 1.8.8 3.5 1.7 5.2 2.7-2.8-9.2-6.4-17.2-12.4-25.1-1-1.3 1.1-2.8 2.3-1.7 7.8 7.4 13.4 18.7 13.6 29.6 0 .9-1.1 1.6-1.9 1.1-2-1.3-3.9-2.5-5.9-3.8 1 4.7 1.9 9.5 2.4 14.2.1 0 .2-.1.3-.1 40.5 8.5 77 3.6 116.6-5.9-5.5-6.9-11.6-13.1-18.4-18.1-.6-.5-.9-1.6 0-2 14-6.2-17.1-9.9-18.8-10-.8-.1-.8-1.3 0-1.3 10.5-.1 19.3 2.4 28.4 7.4.7.4.7 1.5 0 1.9-9.8 4.7 1.1 7.6 5.1 12.4 4.6 5.5 8.8 11.2 12.3 17.6 7.3 13.2 14.8 27.3 18.9 42 1.1.5 1.5 2 .9 2.9 3.5 13.5 5.3 27.5 2.3 41.3-.9 3.9-1.9 7.9-3 11.8 0 .3 0 .6-.2.8l-.1.1c-4.4 16.5-9.1 33.2-3.1 49.6.6.1 1.1.5 1.1 1.2v.4c.3-1.9 1-3.7 2-5.4.6-1.1 2.5-1.2 3.1 0 1.1 2.4 2.3 4.9 3.4 7.3 2.4-2.6 4.8-5.2 7.6-7.3.2-.2.5-.2.7-.2.4-1.2 2.3-1.4 2.8.1 2.7 8 20.8-12 23.3-15.2 6.6-8.3 12.7-17.4 16.1-27.5 6.8-20.3 8.4-41.2 8.4-62.5 0-31.8-1.6-64.6 12.6-93.9 0-.1.2-.1.3-.2ZM161 188.2c-.9 1.9-2.3 3.4-3.7 5-1 1.1-2.7-.3-2-1.5 1.1-1.8 2.1-3.6 3.7-5 1.1-1.1 2.6.2 2 1.5Zm39.3 3.2c-1.9 1.8-3.9 2.7-6.5 3.3-1.8.4-2.5-2.2-.8-2.8 2-.6 3.9-1.6 5.7-2.5 1.3-.6 2.7 1 1.6 2Zm28.3-18.6c-2.1.5-4.1.9-6.2 1.2-2.2.3-2.2-3.2 0-3.5 2-.2 3.9-.2 5.9-.3 1.5 0 1.8 2.2.3 2.6Zm38.1 14.7c-2 .9-4.1 1.4-6.2 1.9-1.9.5-2.7-2.4-.8-2.9 2.1-.6 4.2-1.2 6.3-1.4 1.3-.2 1.9 1.9.7 2.4Zm24.7 260.9c-.2 1.5-2.1 1.5-2.3 0-.3-2.2-.2-4.3-.2-6.5 0-1.8 2.8-1.8 2.8 0 0 2.2 0 4.3-.3 6.5Zm8.3-297c-1.3.9-2.6 1.8-4 2.6-1.6.9-3.1-1.6-1.5-2.5 1.4-.8 2.8-1.5 4.2-2.2 1.6-.7 2.6 1.1 1.3 2.1Zm5.4 75.2c-.9 1.1-3.2.5-2.5-1.1.6-1.6 1.5-3 2-4.7.4-1.2 2.4-1 2.3.3-.3 2-.6 3.8-1.8 5.5Zm14.6 166c-.4 1.1-2.2 1-2.1-.3.1-1 .2-2 .2-3 .2-2.2 3.5-1.5 2.8.4-.3 1-.6 1.9-.9 2.9Zm4.7-72.6c-.3-1.3-.7-2.7-1-4-.6-2.4 3.2-2.9 3.3-.4 0 1.4.1 2.8.1 4.1 0 1.4-2 1.6-2.4.3Zm26.9-159.4c-1.7 1.5-3.4 2.8-5.3 4.1-1.6 1-3-1.4-1.5-2.5 1.8-1.3 3.5-2.3 5.5-3.3 1-.6 2.3.8 1.3 1.7Zm4 112.2c-.2 1.2-2.3 1.2-2.5 0-.3-2.5-.4-4.9-.4-7.4 0-2.1 3.4-2.1 3.3 0-.1 2.5-.1 5-.4 7.4Zm19.6-156.5c-1.9 1.6-4 2.6-6.3 3.4-1.6.5-2.2-1.9-.7-2.5 2-.7 3.8-1.7 5.7-2.7 1-.6 2.3.9 1.3 1.8Zm28.6-47.2c-.7.5-1.5.9-2.2 1.4-1.5.9-2.6-1.6-.9-2.2.8-.3 1.6-.6 2.4-1 1-.4 1.7 1.3.7 1.8Zm17.8 93c1.4.2 2.8.4 4.1.5 1.6.2 1.6 2.2 0 2.4-1.4.2-2.8.4-4.1.5-2.2.4-2.2-3.6 0-3.4Zm10.6 51.8c-2.2 1.2-4.5 1.7-7.1 1.7-2 0-2-3.1 0-3 2.1.1 4.1-.3 6.2-.8 1.3-.4 2.2 1.4.9 2.1Zm20.3-126.6c-1.9 1.9-3.9 3.1-6.3 4-1.6.6-2.3-1.9-.7-2.6 2-.8 3.9-1.9 5.8-3.1.9-.6 2 .9 1.2 1.7Zm31.3-46.4c2.5-.4 5-.8 7.5-1 1.5-.1 1.7 2.2.3 2.6-2.3.6-4.6 1.1-7 1.5-2 .3-2.8-2.7-.8-3.1Zm8.3 80.6c-1.3.7-2.3.9-3.8 1.2-2.4.4-3.4-3.1-1-3.7 1.5-.3 2.6-.6 4-.4 1.4.2 2.2 2.1.8 2.9Zm15.1 48c-2 .1-3.9.3-5.9.4-1.6.1-1.6-2.7 0-2.5 2 .1 3.9.3 5.9.4 1.1 0 1.1 1.6 0 1.7Zm11.2-91.9c-1.1 0-2.2-.2-3.3-.4-1.8-.3-1.1-3.2.8-2.8 1 .2 1.9.4 2.9.8 1.2.5 1.1 2.4-.4 2.4Zm21.5 41.4c-1.9-.6-3.6-1-5.6-1-1.8.1-1.7-2.6 0-2.7 2.4-.1 4.5.2 6.5 1.5 1.1.7.5 2.6-.9 2.2Zm4.8 116.3c-.7-1.6-1.3-3.2-1.8-4.9-.6-2.1 2.7-3 3.2-.9.4 1.7.7 3.4.9 5.1 0 1.3-1.8 1.8-2.3.7Zm10.8 94.7c-.3 1.1-2.1.9-2.1-.3.1-2.3.4-4.6.7-6.9.3-1.9 3.2-1.1 2.9.8-.4 2.2-.9 4.3-1.5 6.4Zm4.8 34.4c-1 .7-2-.8-1.2-1.6.9-1 1.3-2.2 1.4-3.5.2-1.9 3.2-1.9 3 0-.3 2.3-1.1 3.8-3.2 5.1Zm9-75.7c-.3-1.2-.5-2.3-.8-3.5-.4-1.8 2.4-2.2 2.6-.3.1 1.2.2 2.4.4 3.5.1 1.2-1.9 1.5-2.2.3Zm3-224.4c-1.4-.4-2.6-1-4-1.7-1.7-.9-.2-3.4 1.5-2.6 1.2.6 2.3 1.1 3.5 1.9 1.2.8.5 2.8-1 2.4Zm5.9 125.8c-.8-1.9-1.3-3.9-1.9-5.9-.4-1.6 2-2.2 2.5-.7.6 2 1.1 3.9 1.5 6 .3 1.4-1.6 1.9-2.1.6Zm9.1-70.9c-.8-1.3-1.4-2.6-2.1-3.9-1.1-2.4 2.4-3.9 3.3-1.4.5 1.4 1 2.8 1.4 4.2.4 1.6-1.8 2.5-2.6 1.1Z" fill="#dc56c5"/><path d="M556.5 397.9c-2.1 1.4-4.4 2.8-6.7 4.2-.9.5-2.2 0-2.5-1-.3-1.2-.7-2.4-1-3.6-2.4 3.1-5.3 5.8-8.1 8.6-.8.8-2.4.7-2.8-.4l-3-6.6c-.6 1.5-1 3-1.4 4.7-.2.7-.9.9-1.5.6-.1.1-.1.1-.2.1.3 2.7 1.1 5.3 2.8 7.8 1.3 1.9 2.9 3.3 4.5 4.6-.6-2.2-.6-4.5.4-6.8.5-1.1 2.3-.3 1.9.8-1.4 4.1 1 8.8 4.9 10.6 2.7 1.3 5.5 1.7 8.4 1.9-3.4-2.7-5.7-6.5-5-10.8.2-1.3 2.3-1 2.3.3-.3 6.5 8.1 10.6 14.4 10.2-4.4-6.9-8.8-17.3-7.4-25.2ZM245 443.3c-.1.9-1 2-2.1 1.6-.1 0-.2-.1-.3-.1 2.8 3.8 7.6 5.5 12.1 4.5-3.7-1.9-7.4-4.5-9.6-7.9 0 .6-.1 1.2-.1 1.9Zm-17.7 1.5v-.1c-1.5-1.3-3-2.6-4.5-4-.3 2.3-.5 3.8-1.1 6.4 3.2 2.9 7 3.8 11.1 3.7-2.2-1.6-4.2-3.6-5.5-6Zm12.3-.8c-.1-.1 0-.3 0-.4-2.6-1-2.5-1-5.7-3.4-.2 2.1-1.5 4-3.3 5.4 3.7 4.2 9.1 5.4 14.6 4.7-2.4-1.4-4.4-3.6-5.6-6.3Zm255.3-55.1c-7.3 4.1-14.9 4.8-21.8-1.1-1.2-1-2.2-2-3-3.1-.3 5.1 1.4 10 4.5 14.2.1-.9.2-1.8.5-2.7.4-1.3 2.4-1.1 2.4.3-.3 6.9 2.9 12 9.1 13.8-2.4-3.2-3.9-7.2-3.7-11.4.1-1.6 2.4-1.6 2.4 0 .1 7.6 6 13.4 13.1 15-4.7-7.3-6-16.8-3.5-25Z" fill="#FFFBD2"/><path d="M147.4 255c7.1-9.1 18.2-13.7 28.8-17.4 7.1-1.3 9-6.5 5.7-15.7-3.6-3-7.6-4.4-12.2-4.2-4.2.3-8.3.9-12.4 2.1-6.2 1.9-12 4.3-17.7 7.1-2.5 9.4 1.2 20 7.8 28.1Zm24.7-25.4c1 1.2-.2 3.1-1.7 2.3-4.9-2.6-10.1-2-12.2 3.8-.4 1-2.1 1-2-.3.6-7.5 10.6-12.3 15.9-5.8Z" fill="#dc56c5"/><path d="M280.9 297.3c-21.9-2.4-43.2-6-65.4-5.6 2.1 8.1 2.6 16.8 2.1 25.2 2-1.2 3.8-2.5 5.6-4 1.1-.9 2.9.2 2.1 1.6-.5.7-1 1.4-1.6 2 2.2 22.3-10.3 40.8-14.9 62-3 13.8-4.1 30.1-.9 44 1 4.5 7.9 29.6 12 16 .3-.8 1.1-1.2 1.9-1.1.3-.2.7-.2 1.1 0 2.2 1.3 4.2 2.9 6.3 4.4 1-1.3 1.6-2.7 1.9-4.4.2-1.3 2-1.1 2.4-.1 12.8 7.4 11-24.2 11.7-31 1-8.5 1.8-17.3 5.5-25.1 8.8-18.3 21.1-36.4 36.2-50.2-.4-11.3-2.7-22.7-6-33.7 0-.1 0 0 0 0Zm-59.5 90c-.3.9-1.8 1.1-2 0-.2-1.4-.1-2.4.1-3.8.2-1.5 2.5-1.6 2.4 0-.1 1.3-.1 2.4-.5 3.8Zm11 28.9c-.3 1.2-2.1 1.2-2.3 0-.3-1.3-.4-2.5-.3-3.9.1-1.9 2.8-1.9 2.9 0 .1 1.5 0 2.6-.3 3.9Zm16.2-98.6c-.1.8-1.6.8-1.7 0-.2-1.1-.2-2.1-.2-3.2 0-1.4 2.1-1.4 2.1 0 0 1.1 0 2.1-.2 3.2Zm8 36.3c-.4 1-2 .4-2-.5 0-1.3 0-1.5.4-2.7.4-1.6 2.6-.9 2.3.6-.1 1.3-.2 1.5-.7 2.6Z" fill="#9b388a"/><path d="M527.7 291.3c-4.4-16.9-12.1-33.5-22.5-47.2-36.9 15.5-80.4 14.7-118.6 5.2 1.5 14 .9 28-1.4 41.8 47.7.6 94.8 2 142.5.2Z" fill="#FAA861"/><path d="M319.3 486.6c-4.2-.5-3.4-.2-7-1.7-.8 2.6-2.1 4.9-3.6 7.3-.4.7-1.3.9-2 .5-2.4-1.2-4.6-2.7-6.5-4.6-.1 1.8-.3 2.2-1.7 4.5 2 2.4 3.7 4.7 6.8 5.8 1.7.6 3.4.9 5.2 1-.8-1-1.5-2.1-1.8-3.5-.2-.9 1-1.4 1.5-.6 2.8 4.2 7 5.7 11.5 4.9-2.6-1.1-4.9-3.1-6.3-5.9-.6-1.1 1-2.1 1.7-1 3.8 5.6 10.3 5.8 15.4 2.4-5.3-1-10.6-4.5-13.2-9.1Z" fill="#FFFBD2"/><path d="M721.7 254.1c-17.6 4.7-36.8 2.4-54.1-2.8-21.3-6.5-41.2-17.6-64-15.6-1.7 16.3-2 33.2-2.6 50 16.4-1.1 31.6 4.1 46.3 11.1 22.7 10.9 42.7 20.6 68.6 19.3.3 0 .4.1.6.2.9-11.1 7.8-20.5 8.1-31.8.2-10.2-1.9-20.1-2.9-30.4 0 .1 0 .1 0 0Z" fill="#FAA861"/><path d="M228.4 235c10.5 8.2 23.9 12 32.6 22.4 8-7.1 11.6-16.9 10.4-25.7-6.9-4.3-14.1-7.6-21.8-10.2-4.1-1.4-8.9-3.3-13.2-3-7.8.5-15.4 10.7-8 16.5Zm18.2-5c-.1 1.4-1.8 1.9-2.6.7s-1.6-3-3.3-3.2c-2.3-.3-3.6 1.2-4.4 3.1-.6 1.4-2.5.3-2.3-1 1.1-7.1 13.2-7 12.6.4Z" fill="#dc56c5"/><path d="M117.9 374.9c18.2-12.4 15.5-42.1 8.7-60.6-22.4 11.3-17.7 42.5-8.7 60.6ZM15 271.4c19.8 7 35.8 1.2 50.6-12.3-18.8-3.7-38.8-5.6-50.6 12.3Zm38.1 91.4c9.7-3 18.5-7.8 25-16 7-8.9 9.2-18.3 11.7-28.8-.2.2-.5.3-.8.3-25.2-3.3-34.2 24.4-35.9 44.5Z" fill="#A3CF64"/><path d="M251.2 211.3c-19.4-4.3-39.1.1-58.5 2.8-.2.4-.5.6-1 .5-.2-.1-.5-.2-.8-.2-1.1.2-2.2.3-3.3.5-1.2.1-1.8-.9-1.8-2-11.7-3.4-25.7-6.8-36 .2-4.6 3.1-7.5 6.8-9.2 10.8 13.8-7.7 41.5-17.7 47.3.7 2.4 7.6-.8 12.5-7.8 15.7-5.5 2.5-11.3 3.7-16.5 6.9-5 3.1-9.4 6.9-14.1 10.3 2.6 2.7 5.4 5 8.5 6.8 20.5 11.7 45.4 10.9 67.9 6.2 10.4-2.2 22.9-4.2 31.9-10.4.4-.2.7-.5 1-.8-5.2-3.9-9.9-8.2-15.6-11.4-4.8-2.7-10.2-5-14.5-8.4-6.4-5.1-10.3-10.4-6.4-18.3 7.7-15.3 35.8-2.3 48 6.1-2.6-7.5-8.8-13.7-19.1-16Zm-57.6 26.9c2.3-2 5-2.7 7.7-2.5 1.8-.1 3.6.5 5 1.7.4.3.9.4 1.3.7.6.4.6 1.1.5 1.8 1.1 4.1-5.5 6.9-8.5 7.2-2.4.3-5.3-.3-6.6-2.6-1-2-1.4-4.7.6-6.3Zm18.8 20.3c-2.6 5-8.8 4.6-11.7 1.3-.7 1.6-1.7 2.9-3.4 3.6-3.9 1.5-8.3-.6-8.6-5.1-.1-1.6 2.3-1.8 2.7-.4.8 2.8 5.1 3.2 6.5.6 1-1.9 1.1-3.7.6-5.8-.4-1.6 1.9-2.2 2.5-.7.1.2.1.4.1.6.3.2.5.4.6.9.2 5 5.3 7.2 8.7 3.2.9-1.1 2.7.4 2 1.8Z" fill="#FFFBD2"/><path d="M102.4 256.7c5.6-24.4-21.9-40.4-41.5-46.5 3.6 21.5 19.6 41.3 41.5 46.5Z" fill="#A3CF64"/><path d="M279.7 293.1c-3.8-11.8-9.1-24.6-9.1-37.1-14 13.7-43.5 19.3-56.9 20.6-23.5 2.2-51-.4-66.8-16.9-39 9.9-88.2 19.5-117.7 48.4-.2.2-.3.2-.5.2.9 2.3 1.3 4.8.6 7.1 18.4-4.7 32.2-17 51.8-19.9 19.7-2.9 39.6-4.8 59.5-5.6 24.4-1.1 48.9-1.9 73.4-2.3 22.6-.4 43.7 3.1 65.9 5.8-.2-.1-.2-.2-.2-.3Z" fill="#FAA861"/><path d="M199.7 247.1c3-.3 9.6-3.1 8.5-7.2.1-.7 0-1.4-.5-1.8-.4-.3-.9-.5-1.3-.7-1.4-1.3-3.2-1.8-5-1.7-2.7-.2-5.4.6-7.7 2.5-2 1.6-1.6 4.4-.5 6.3 1.2 2.3 4.1 2.9 6.5 2.6Zm10.6 9.7c-3.4 4-8.5 1.8-8.7-3.2 0-.4-.3-.7-.6-.9-.1-.2-.1-.4-.1-.6-.6-1.5-2.8-.9-2.5.7.5 2 .4 3.9-.6 5.8-1.3 2.6-5.7 2.2-6.5-.6-.4-1.4-2.7-1.2-2.7.4.2 4.4 4.6 6.5 8.6 5.1 1.8-.7 2.8-2 3.4-3.6 3 3.2 9.1 3.7 11.7-1.3.8-1.5-1-3-2-1.8Zm-52.2-21.2c2.2-5.8 7.3-6.4 12.2-3.8 1.5.8 2.8-1 1.7-2.3-5.3-6.5-15.3-1.7-16 5.8-.1 1.3 1.7 1.3 2.1.3Zm78.2-5c.8-1.9 2.1-3.4 4.4-3.1 1.7.2 2.5 2 3.3 3.2.8 1.2 2.5.7 2.6-.7.6-7.5-11.6-7.5-12.6-.4-.2 1.3 1.7 2.4 2.3 1Z" fill="#332833"/><path d="M724.5 252.8c.6-1.2 0-2.9-1.5-2.7-23.2 3-43.9.8-66.2-6.2-17.7-5.6-34.1-13.8-52.8-10.4 1.2-10.6 3.1-21 6.2-30.8.4-.1.7-.3.9-.7 7.1-13.9 4.5-30.6 6.8-45.7 1.8-11.4 3.4-22.3 1.5-33.5.1-.1.2-.2.2-.4 3.3-22-5.2-42-15-61.2-11.2-22-28.7-30.7-50.8-39.7C508.5 3 460.4-.4 416.9 24c-20.3 11.3-37.5 27.7-53.7 44.1-21.1 21.4-42.7 40.4-68.7 55.8-24.9 14.8-52.3 24.6-80.4 30.9-20.6 4.6-40.8 8.9-56.9 23 .2-1.5.4-2.8.7-5.6.1-1.1-1.4-2-2.3-1.3-27.5 21.1-36.2 59.2-15.1 88.2-22.2 4.3-43.9 11.1-65 19.2-17.1 6.6-36.3 13.5-47.8 28.4-.5-.1-1.2.3-1 1 1 3.3.3 5.9.1 9.2 0 .5.3.8.8.8.2.2.6.4 1 .3 17.1-2.4 30.9-14.2 48-17.6 23-4.6 47.1-5.4 70.5-6.5 22.1-1 44.2-1.5 66.3-2.1 1.2 9.5 1.9 18.5.7 28.1-.1 1 1.2 2 2.1 1.6 2-.8 3.8-1.8 5.4-3-4.1 39.5-42.1 97.1-3.4 130.6.6.5 1.4.6 2.1.4 4.1 4.2 10.7 6.3 16.2 3.7.1 0 .1-.1.1-.1 3.8 1.4 8 1.5 11.7-.4.3-.1.4-.3.5-.6 3.5.9 7.3.7 10.6-1.2 1-.5 1.1-2.2 0-2.7-5.1-2.2-8.6-5.8-13-8.9-.4-.3-.8-.2-1.1 0 2.1-20.6 2.5-42.9 11.5-61.6 7.5-15.7 19.1-28.7 30.4-41.7.2 16.4-3 32.7-11.6 47.6-.8 1.4.5 3.6 2.3 3 2.1-.8 3.3-1.2 4.3-1.6-5.7 9.4-6.2 21.9-10.6 31.9-.8 1.9 1.4 4 3 2.3 1-1 1.8-2 2.7-3-8.3 27.2 3.3 54.1 17.5 77.4.4.6 1 .9 1.6.9 2.5 6.6 10.8 9.5 17.2 7.7 3.7 2.1 8.8 2.2 12.2-.5.1-.1.1-.2.2-.4 3.6.2 7.3-1.3 9.7-4.8.1-.1 0-.2.1-.3.9 0 1.7-.1 2.6-.2 1.1-.2 1.2-2.1 0-2.3-3.4-.6-6.9-1.2-10.1-2.7-2.6-1.2-4.5-3-6.4-5 4.6-22.6-2.9-44.8 3.1-67.5 6-22.9 21.8-42.7 34.4-62.2 12.5-19.3 21.3-40.7 25.4-62.8 27.9 3 56.8 5.3 85.5 5.4 5.8 21 5.5 39.5-1.7 60.1-2.8 8-4.1 15.8-.7 22.4-2.3 8.1.2 17.3 7.2 22.4 1.8 5.9 7.7 10.6 14.2 9.9.2 0 .2-.1.4-.2 2.9 2.2 6.4 3.5 10.3 3.2.4 0 .7-.3.9-.6.7-.2 1.4-.8 1.1-1.6-3.8-9.7-4.6-18-2.8-28.1 10.8-7.8 20.7-21.7 27.2-31.1-4.1 15.3-7.6 30.2-.1 45.7-1.2 8.9 4.9 20.3 14 21.9h.2c4.4 3.9 11.4 4.4 16.9 3.8h.1c3.7 1.4 7.8 1.8 11.1.6 1.3-.5 2.3-2.1 1.4-3.4-6.1-8.2-8.5-18-9.7-27.9 0-.2-.1-.2-.2-.4 34.9-25.9 39.4-65.6 41-106.9 40.3.4 74.7 40.8 115.4 30.7.4-.1.7-.3.8-.6.9.5 2.2.4 2.5-.8 2.1-10 8.5-18.7 9.6-29 1.2-11.9-.1-23.8-3.9-35.1-.3-.6-.7-.9-1-1.1Zm-510.7 34.8c-24.5.4-48.9 1.2-73.4 2.3-19.9.9-39.8 2.7-59.5 5.6-19.6 2.9-33.3 15.3-51.8 19.9.7-2.3.3-4.8-.6-7.1.2 0 .4-.1.5-.2 29.5-28.9 78.7-38.4 117.7-48.4 15.8 16.5 43.3 19.1 66.8 16.9 13.4-1.3 42.8-6.9 56.9-20.6 0 12.5 5.3 25.4 9.1 37.1 0 .1.1.2.1.3-22.1-2.7-43.2-6.2-65.8-5.8Zm8.5-66.6c-4 7.9 0 13.1 6.4 18.3 4.3 3.5 9.7 5.8 14.5 8.4 5.7 3.2 10.5 7.5 15.6 11.4-.3.3-.6.5-1 .8-9 6.2-21.5 8.2-31.9 10.4-22.5 4.7-47.5 5.5-67.9-6.2-3-1.7-5.9-4.1-8.5-6.8 4.7-3.5 9.1-7.3 14.1-10.3 5.2-3.2 11-4.4 16.5-6.9 7-3.2 10.2-8.1 7.8-15.7-5.7-18.4-33.5-8.3-47.3-.7 1.7-4 4.6-7.7 9.2-10.8 10.3-6.9 24.3-3.6 36-.2 0 1 .6 2.1 1.8 2 1.1-.1 2.2-.3 3.3-.5.2.1.5.2.8.2.5.2.9-.1 1-.5 19.4-2.7 39.1-7.1 58.5-2.8 10.3 2.3 16.6 8.4 19.1 15.8-12.3-8.2-40.3-21.1-48-5.9Zm49.1 10.7c1.2 8.9-2.3 18.7-10.4 25.7-8.7-10.4-22.1-14.2-32.6-22.4-7.4-5.8.1-16 7.9-16.5 4.3-.3 9.2 1.6 13.2 3 7.8 2.6 15 5.8 21.9 10.2Zm-114.1-11.9c4.1-1.2 8.1-1.9 12.4-2.1 4.6-.2 8.7 1.2 12.2 4.2 3.3 9.2 1.4 14.4-5.7 15.7-10.6 3.7-21.7 8.3-28.8 17.4-6.6-8.1-10.3-18.7-7.8-28.2 5.7-2.7 11.5-5.2 17.7-7Zm64.5 227.3c.5-2.6.8-4 1.1-6.4 1.4 1.4 2.9 2.7 4.5 4v.1c1.3 2.4 3.3 4.4 5.5 6-4.2.1-7.9-.9-11.1-3.7Zm8.8-1.4c1.9-1.5 3.1-3.3 3.3-5.4 3.2 2.4 3.2 2.4 5.7 3.4 0 .1-.1.2 0 .4 1.2 2.8 3.2 5 5.6 6.4-5.5.5-10.8-.7-14.6-4.8Zm24.2 3.5c-4.5 1-9.3-.7-12.1-4.5.1 0 .2.1.3.1 1.1.4 2-.6 2.1-1.6.1-.6.1-1.3.2-1.9 2 3.4 5.7 6 9.5 7.9Zm-3.9-67.9c-3.7 7.8-4.6 16.6-5.5 25.1-.8 6.8 1 38.4-11.7 31-.4-1.1-2.2-1.2-2.4.1-.3 1.7-1 3.1-1.9 4.4-2.1-1.5-4.1-3.1-6.3-4.4-.4-.2-.8-.2-1.1 0-.8-.1-1.6.2-1.9 1.1-4.1 13.6-11-11.5-12-16-3.2-14-2.1-30.3.9-44 4.6-21.2 17.1-39.7 14.9-62 .6-.6 1.1-1.2 1.6-2 .9-1.4-1-2.5-2.1-1.6-1.8 1.5-3.7 2.8-5.6 4 .5-8.4.1-17.1-2.1-25.2 22.1-.4 43.4 3.2 65.4 5.6h.1c3.3 11.1 5.5 22.5 6.2 33.8-15.4 13.7-27.7 31.8-36.5 50.1Zm81.6 114.4c-5.1 3.4-11.7 3.2-15.4-2.4-.7-1.1-2.3-.1-1.7 1 1.4 2.8 3.7 4.7 6.3 5.9-4.5.8-8.7-.8-11.5-4.9-.5-.8-1.7-.3-1.5.6.3 1.3 1 2.4 1.8 3.5-1.7-.1-3.5-.4-5.2-1-3.1-1.1-4.9-3.4-6.8-5.8 1.3-2.3 1.5-2.7 1.7-4.5 1.9 1.8 4.1 3.3 6.5 4.6.7.4 1.6.2 2-.5 1.5-2.4 2.8-4.7 3.6-7.3 3.7 1.5 2.9 1.3 7 1.7 2.6 4.6 7.9 8.1 13.2 9.1ZM385.2 291c2.3-13.7 2.9-27.7 1.4-41.8 38.2 9.4 81.8 10.3 118.6-5.2 10.3 13.8 18 30.4 22.5 47.2-47.7 1.9-94.8.5-142.5-.2Zm113.2 122.8c-7.1-1.7-13.1-7.4-13.1-15 0-1.6-2.4-1.6-2.4 0-.2 4.1 1.2 8.2 3.7 11.4-6.2-1.8-9.4-6.9-9.1-13.8.1-1.4-2-1.6-2.4-.3-.3.9-.4 1.8-.5 2.7-3.1-4.2-4.8-9-4.5-14.2.9 1.1 1.9 2.1 3 3.1 7 5.9 14.5 5.2 21.8 1.1-2.5 8.3-1.2 17.8 3.5 25Zm7.9-39.2c-4.9 5.8-10.9 9.8-18.2 12-16.1-3.2-21.9-10.6-17.4-22.1.9-3.1 1.8-6.1 2.9-9.1 6.3-18.6 5.4-37.9-.5-56.5 18.8 0 37.4-1 55.6-3.5 2.2 9.4 3.3 18.7 3.3 27.7 0 8.1-1.7 16-3.7 23.7-7.2 9.3-14.3 18.7-22 27.8Zm57.6 48.6c-6.3.3-14.7-3.7-14.4-10.2.1-1.3-2.1-1.6-2.3-.3-.7 4.3 1.6 8 5 10.8-2.9-.3-5.7-.7-8.4-1.9-3.9-1.8-6.3-6.5-4.9-10.6.4-1.1-1.4-1.9-1.9-.8-1 2.3-1 4.7-.4 6.8-1.7-1.3-3.2-2.7-4.5-4.6-1.7-2.4-2.4-5.1-2.8-7.8.1 0 .1-.1.2-.1.6.2 1.3 0 1.5-.6.4-1.7.8-3.2 1.4-4.7l3 6.6c.5 1.1 2.1 1.1 2.8.4 2.7-2.8 5.7-5.5 8.1-8.6.3 1.2.7 2.4 1 3.6.3 1.1 1.5 1.5 2.5 1 2.4-1.3 4.6-2.7 6.7-4.2-1.4 7.8 3 18.2 7.4 25.2Zm32.4-134.1c0 21.3-1.7 42.2-8.4 62.5-3.4 10.2-9.4 19.3-16.1 27.5-2.6 3.2-20.7 23.2-23.3 15.2-.5-1.5-2.4-1.2-2.8-.1-.3 0-.5 0-.7.2-2.8 2.1-5.2 4.7-7.6 7.3-1.1-2.4-2.3-4.9-3.4-7.3-.6-1.2-2.4-1.1-3.1 0-1 1.7-1.7 3.5-2 5.4v-.4c0-.7-.5-1.1-1.1-1.2-6-16.5-1.4-33.1 3.1-49.6l.1-.1c.2-.3.2-.6.2-.8 1.1-3.9 2.1-7.9 3-11.8 3-13.8 1.2-27.9-2.3-41.3.7-.9.3-2.4-.9-2.9-4.2-14.7-11.7-28.8-18.9-42-3.5-6.3-7.7-12.1-12.3-17.6-4-4.7-14.9-7.7-5.1-12.4.7-.4.7-1.5 0-1.9-9.1-5-18-7.5-28.4-7.4-.8 0-.8 1.2 0 1.3 1.7.1 32.8 3.8 18.8 10-.9.4-.6 1.5 0 2 6.7 5 12.9 11.1 18.4 18.1-39.6 9.5-76 14.4-116.6 5.9-.1 0-.2 0-.3.1-.6-4.7-1.4-9.5-2.4-14.2 1.9 1.3 3.9 2.6 5.9 3.8.8.5 1.9-.2 1.9-1.1-.2-10.9-5.8-22.2-13.6-29.6-1.1-1.1-3.3.4-2.3 1.7 6 7.9 9.6 15.9 12.4 25.1-1.7-1-3.4-1.9-5.2-2.7-1-1-3.1-.2-2.8 1.6 10 52.5-7.6 96.3-35.9 139.3-9.5 14.5-18.1 29.3-23.3 45.9-2.7 8.7-3.3 17.8-3.1 26.9.1 4.2 7.3 40.3-5.3 38.4 0-.2.1-.3.1-.5.2-1.2-1.6-1.4-2.1-.6-.3.4-.5.9-.7 1.3-1.2 2.1-2.2 4.3-3.3 6.5-2.2-1.1-4.3-2.4-6.4-3.9 0-1.4-2-1.5-2.4-.3-2.5 6.9-7.4-6.2-8-7.3-3.4-6.1-6-12.5-8.4-19-5.5-15-5.5-30.6-1.5-45.9 0-.1.1-.1.1-.2.9-1.1-.3-3.2-1.7-2.2-.3.2-.5.5-.8.7 3.3-10.6 4.2-21.8 11.4-30.8.7-.9.2-1.8-.6-2.1-.5-.7-1.3-1.1-2.1-.6-7.4 4.5-4.2 3.1-2-2.8 2-5.3 3.6-10.5 4.9-16.1 2.1-9 2.2-18.4 1.6-27.6.5-.7.3-1.5-.2-1.9-.2-2-.3-4.1-.5-6.1-2.6-24.8-15.7-46.9-16.5-71.3 4.2-5.8 5.8-12.7 2.9-21.2-12.7-36.8-60.2-24.5-89.2-19.9-13.4-4.8-25.9-7.4-39.7-1.3-10 4.4-14.9 17.3-12.6 27.6 1.9 8.5 5.5 15.3 10.2 20.7-1.1.2-2.2.5-3.4.7v-.3c-8.9-16.3-12.5-32.1-8.6-50.4 1.3-6.3 4.4-12 7.6-17.5 1.7-2.9 13.4-21 13.6-9 0 1.1 1.7 1.4 1.9.3.1-.4.1-.6.2-.9 17.9-15.8 41.1-18.9 63.7-23.8 19.2-4.2 37.7-10.9 55.5-19.1 41.5-18.8 70.8-49 103.4-79.6C417 23.2 460.5 4.7 512.2 13.2c23.3 3.8 46 12.7 66.7 23.7 24.8 13.2 37.4 51.8 37.6 79.4-.1.1-.2.3-.2.6.1.6.1 1.2.2 1.8 0 1.1 0 2.2-.1 3.2 0 .4.1.8.4 1.1.5 12.7-2.2 24.9-4.5 37.6-2 11.5-1.2 23-3.1 34.4-.1.1-.3.1-.3.3-14.2 29.2-12.6 62.1-12.6 93.8Zm120.2 27.3c-.2-.1-.4-.2-.6-.2-25.9 1.3-45.8-8.3-68.6-19.3-14.7-7.1-29.9-12.2-46.3-11.1.6-16.7.9-33.7 2.6-50 22.7-2 42.7 9.1 64 15.6 17.3 5.2 36.5 7.5 54.1 2.8v.1c1.1 10.2 3.2 20.1 2.9 30.3-.3 11.3-7.2 20.7-8.1 31.8Z" fill="#332833"/><path d="M102.5 258.8c.6.9 1.8 1.4 2.6.4 6.4-8.2-1.2-23.3-6.9-30.1-10-11.8-23.5-17.8-38.3-21.2-.7-.2-1.1.3-1.2.8-.5.2-.9.6-1 1.3-.8 11.8 5.1 22.2 12.8 30.8 7.5 8.4 20.2 18.4 32 18Zm-.1-2.1c-21.9-5.2-37.9-25-41.5-46.5 19.5 6.1 47 22 41.5 46.5ZM70.9 258c.8-1.4-1-2.8-2.2-1.7l-.5.5c-18.5-4.6-47.7-8.9-56.2 13.9-.9.2-1.4 1.7-.4 2.2 19.8 9.9 47.9 5.5 59.3-14.9ZM15 271.4c11.8-17.9 31.8-16 50.6-12.3-14.8 13.5-30.8 19.3-50.6 12.3Zm75.2 45c0 .1-.1.3-.1.4-.1-.4-.3-.9-.8-.9-10.8-1.8-21.9 2.5-28.4 11.4-6.8 9.2-13.4 24.8-10.9 36.6-.1 0-.1 0-.2.1-1.1.3-.9 2.3.3 2.1.3 0 .5-.1.8-.1.5.2 1.1.1 1.5-.2 22.4-3.7 44.4-25.2 40.6-49.3-.2-1.6-2.5-1.5-2.8-.1Zm-12.1 30.4c-6.5 8.2-15.3 12.9-25 16 1.7-20.1 10.7-47.8 35.9-44.5.4 0 .6-.1.8-.3-2.5 10.6-4.7 19.9-11.7 28.8Zm47.6-35c-24.8 7.1-23.5 48.7-10.1 64.9-.7 1 .2 2.5 1.6 2.3 11.4-2.1 14.8-15.4 17.1-25.2 3.3-14.3.2-29.8-6.6-42.6-.5-1-2.2-.4-2 .6Zm-7.8 63.1c-9-18.1-13.7-49.2 8.7-60.6 6.7 18.5 9.5 48.2-8.7 60.6ZM159 186.6c-1.6 1.4-2.6 3.2-3.7 5-.7 1.2 1 2.6 2 1.5 1.4-1.6 2.9-3.1 3.7-5 .6-1.2-.9-2.5-2-1.5Zm39.8 2.9c-1.9.9-3.7 1.9-5.7 2.5-1.8.5-1 3.2.8 2.8 2.5-.6 4.6-1.5 6.5-3.3 1-1.1-.4-2.7-1.6-2Zm29.5-19.3c-2 0-3.9 0-5.9.3-2.2.3-2.2 3.8 0 3.5 2.1-.2 4.2-.7 6.2-1.2 1.5-.4 1.2-2.6-.3-2.6Zm37.8 14.9c-2.2.2-4.2.9-6.3 1.4-1.9.5-1.1 3.4.8 2.9 2.1-.6 4.2-1.1 6.2-1.9 1.1-.5.5-2.6-.7-2.4Zm32.4-35.8c-1.5.6-2.8 1.4-4.2 2.2-1.6.9-.2 3.4 1.5 2.5 1.4-.8 2.7-1.6 4-2.6 1.2-1 .2-2.8-1.3-2.1Zm51.5 9.5c-1.9 1-3.7 2-5.5 3.3-1.5 1.1-.1 3.6 1.5 2.5 1.9-1.2 3.6-2.6 5.3-4.1 1-.8-.3-2.2-1.3-1.7Zm23.5-44.3c-1.9 1-3.7 2-5.7 2.7-1.5.5-.9 3 .7 2.5 2.4-.8 4.4-1.8 6.3-3.4 1.1-.9-.2-2.4-1.3-1.8Zm29.3-47.2c-.8.3-1.6.6-2.4 1-1.7.7-.5 3.1.9 2.2.8-.5 1.5-.9 2.2-1.4 1-.5.3-2.2-.7-1.8Zm48.1 18.4c-1.8 1.2-3.7 2.3-5.8 3.1-1.5.6-.9 3.2.7 2.6 2.4-1 4.5-2.2 6.3-4 .9-.9-.2-2.4-1.2-1.7ZM491 39.9c-2.5.2-5 .6-7.5 1-2 .3-1.2 3.4.8 3 2.4-.4 4.7-.9 7-1.5 1.4-.3 1.2-2.6-.3-2.5Zm27.5 35.3c-1-.4-1.9-.6-2.9-.8-1.8-.4-2.6 2.5-.8 2.8 1.1.2 2.2.3 3.3.4 1.5 0 1.6-1.9.4-2.4ZM569.6 60c-1.7-.8-3.2 1.7-1.5 2.6 1.3.7 2.5 1.3 4 1.7 1.5.5 2.1-1.6 1-2.4-1.2-.8-2.3-1.4-3.5-1.9ZM491 118.6c-1.5-.2-2.6.1-4 .4-2.4.5-1.4 4.1 1 3.7 1.5-.3 2.5-.4 3.8-1.2 1.4-.8.6-2.7-.8-2.9Zm-65.6 44.1c-1.4-.2-2.8-.4-4.1-.5-2.2-.3-2.2 3.8 0 3.5 1.4-.2 2.8-.4 4.1-.5 1.6-.3 1.6-2.3 0-2.5Zm-120.9 58.1c-.5 1.6-1.3 3.1-2 4.7s1.7 2.2 2.5 1.1c1.2-1.6 1.5-3.4 1.7-5.4.2-1.4-1.8-1.6-2.2-.4Zm47.9 44.6c.1 2.5.1 5 .4 7.4.2 1.2 2.3 1.2 2.5 0 .3-2.5.4-4.9.4-7.4 0-2.1-3.4-2.1-3.3 0Zm-29 50.6c.3 1.3.7 2.7 1 4 .3 1.3 2.4 1 2.3-.3 0-1.4-.1-2.8-.1-4.1 0-2.4-3.8-1.9-3.2.4Zm-5.6 73.4c-.1 1-.2 2-.2 3-.1 1.3 1.8 1.4 2.1.3.3-1 .6-1.9.9-2.9.6-2-2.7-2.6-2.8-.4Zm-28.9 52.5c0 2.2 0 4.3.2 6.5.2 1.5 2.1 1.5 2.3 0 .3-2.2.2-4.3.2-6.5.1-1.8-2.7-1.8-2.7 0Zm-59.1-29.5c-.1 1.4 0 2.5.3 3.9.3 1.2 2.1 1.2 2.3 0 .3-1.3.4-2.5.3-3.9-.1-1.9-2.8-1.9-2.9 0Zm-10.4-28.9c-.2 1.4-.3 2.4-.1 3.8.2 1.1 1.7.9 2 0 .4-1.3.4-2.4.5-3.8.1-1.7-2.2-1.6-2.4 0Zm35.6-32.8c-.3 1.2-.4 1.4-.4 2.7 0 1 1.5 1.5 2 .5.5-1.2.6-1.3.8-2.6.2-1.5-2-2.2-2.4-.6Zm-8.3-36.3c0 1.1 0 2.1.2 3.2.1.8 1.6.8 1.7 0 .2-1.1.2-2.1.2-3.2 0-1.4-2.1-1.4-2.1 0ZM431 211.7c-2.1.5-4 .9-6.2.8-2-.1-2 3.1 0 3 2.5-.1 4.8-.5 7.1-1.7 1.3-.6.4-2.4-.9-2.1Zm75.9-44c-2-.1-3.9-.3-5.9-.4-1.6-.1-1.6 2.7 0 2.5 2-.1 3.9-.3 5.9-.4 1.1 0 1.1-1.6 0-1.7Zm27.2-52.4c-1.7.1-1.8 2.8 0 2.7 2-.1 3.7.4 5.6 1 1.3.4 2-1.4.9-2.1-2.1-1.4-4.2-1.7-6.5-1.6Zm50.8 0c.6 1.4 1.3 2.7 2.1 3.9.8 1.4 3.1.5 2.6-1.1-.4-1.5-.9-2.8-1.4-4.2-.9-2.5-4.5-1-3.3 1.4Zm-8.9 69c.6 2 1.1 3.9 1.9 5.9.5 1.3 2.3.8 2.1-.6-.4-2-.9-4-1.5-6-.5-1.6-2.9-.9-2.5.7Zm-33.4 46.1c.5 1.7 1.1 3.3 1.8 4.9.5 1.1 2.4.6 2.3-.6-.1-1.8-.4-3.4-.9-5.1-.6-2.1-3.8-1.3-3.2.8Zm25.6 54.8c.3 1.2.5 2.3.8 3.5.3 1.2 2.2.9 2.1-.3-.1-1.2-.2-2.4-.4-3.5-.1-1.9-2.9-1.5-2.5.3Zm-14.3 37.7c-.3 2.3-.6 4.6-.7 6.9-.1 1.2 1.8 1.4 2.1.3.6-2.1 1.1-4.2 1.5-6.4.3-2-2.7-2.7-2.9-.8Zm6.3 36.4c-.1 1.3-.6 2.5-1.4 3.5-.7.8.2 2.3 1.2 1.6 2-1.3 2.9-2.7 3.2-5.1.2-1.9-2.8-2-3 0Zm-66.7-50.2c-.1 1.8-.1 3.5.1 5.3.1 1.2 1.7 1.2 1.8 0 .1-1.8.1-3.5.1-5.3-.1-1.3-1.9-1.3-2 0Zm10.3 36.2c-.2 1.3-.4 2.6-.4 3.9 0 1.3 1.8 1.5 2.2.3.4-1.2.6-2.3.8-3.5.3-1.7-2.3-2.4-2.6-.7Zm-20 19.7c-.8 1.3-1.7 2.5-2.2 4-.4 1.1 1.2 1.9 1.9 1.1 1.1-1.1 1.8-2.4 2.6-3.7 1-1.5-1.4-2.9-2.3-1.4Zm40.6-61.5c.3 1.4.5 3.5.6 5 .1 1 1.5 1.3 1.8.2.5-2.1.5-3.8.1-5.9-.3-1.6-2.8-.9-2.5.7Z" fill="#332833"/><path d="M574.6 254.6c-13.7-34.9-42.6-57.2-80-63.2 3.1-2.5 6.8-4.8 10.4-6.2-13 4.5-29.6 1.8-43.3 1.2-24.5-1.1-49.9-2.9-74.2-3.4 1.6 3.3 2.7 7 3.3 10.6-17.8-2.9-35.5-7.9-53.4-10.5 4 10.6 3.9 29.1 5.2 41 2.3 20 .8 40.3.3 60.4-.5 18.9-2.6 47.7-13.3 63.9-.5-1.1-2.6-3.1-3.1-4.2-14.9 21.4-19.4 47-28.3 70.9-1.5-1.2-3.8-1.7-5.3-3.4-1.2 16.1 1.6 27.9 7.3 42.8 3.3 8.7 5.2 20.6 9.1 29.7l.6-1.2c.2-.4.4-.9.7-1.3.5-.9 2.3-.6 2.1.6 0 .2-.1.3-.1.5 12.6 1.9 5.3-34.3 5.3-38.4-.1-9 .4-18.2 3.1-26.9 5.2-16.6 13.8-31.4 23.3-45.9 28.3-43 45.9-86.8 35.9-139.3-.3-1.8 1.8-2.6 2.8-1.6 1.8.8 3.5 1.7 5.2 2.7-2.8-9.2-6.4-17.2-12.4-25.1-1-1.3 1.1-2.8 2.3-1.7 7.8 7.4 13.4 18.7 13.6 29.6 0 .9-1.1 1.6-1.9 1.1-2-1.3-3.9-2.5-5.9-3.8 1 4.7 1.9 9.5 2.4 14.2.1 0 .2-.1.3-.1 40.5 8.5 77 3.6 116.6-5.9-5.5-6.9-11.6-13.1-18.4-18.1-.6-.5-.9-1.6 0-2 14-6.2-17.1-9.9-18.8-10-.8-.1-.8-1.3 0-1.3 10.5-.1 19.3 2.4 28.4 7.4.7.4.7 1.5 0 1.9-9.8 4.7 1.1 7.6 5.1 12.4 4.6 5.5 8.8 11.2 12.3 17.6 7.3 13.2 14.8 27.3 18.9 42 1.1.5 1.5 2 .9 2.9 3.5 13.5 5.3 27.5 2.3 41.3-.9 3.9-1.9 7.9-3 11.8 0 .3 0 .6-.2.8l-.1.1c-4.4 16.5-9.1 33.2-3.1 49.6.6.1 1.1.5 1.1 1.2v.4c.3-1.9 1-3.7 2-5.4.6-1.1 2.5-1.2 3.1 0 1.1 2.4 2.3 4.9 3.4 7.3 2.2-2.4 4.4-4.8 7-6.8-1-7.9-1.2-15.9.3-24.1 2.7-14.8 8.8-28 11.1-42.6-.2.6-.3 1.3-.5 1.9-.3 1.1-2.1.9-2.1-.3.1-2.3.4-4.6.7-6.9.2-1.4 1.8-1.3 2.6-.5.1-1.4.2-2.8.2-4.2 3 1.5 6.4 4.5 9.5 6.3 0-23.2-2.8-47.9-6.4-70.9 5.3.3 10.1 1.6 15.1 1.1Zm-254 135.1c-.3 1-.6 1.9-.9 2.9-.4 1.1-2.2 1-2.1-.3.1-1 .2-2 .2-3 .1-2.1 3.4-1.5 2.8.4Zm34.7-116.9c-.2 1.2-2.3 1.2-2.5 0-.3-2.5-.4-4.9-.4-7.4 0-2.1 3.4-2.1 3.3 0-.1 2.5-.1 5-.4 7.4Zm76.6-58.9c-2.2 1.2-4.5 1.7-7.1 1.7-2 0-2-3.1 0-3 2.1.1 4.1-.3 6.2-.8 1.3-.4 2.2 1.4.9 2.1Zm112.5 21.4c-.7-1.6-1.3-3.2-1.8-4.9-.6-2.1 2.7-3 3.2-.9.4 1.7.7 3.4.9 5.1 0 1.3-1.8 1.8-2.3.7Z" fill="#9b388a"/></svg>