<svg width="1280" height="1458" fill="none" xmlns="http://www.w3.org/2000/svg"><circle cx="115" cy="360" r="107.5" stroke="#212121"/><circle cx="1165" cy="885" r="107.5" stroke="#212121"/><g filter="url('#a')"><circle cx="115" cy="360" r="68" fill="url('#b')" fill-opacity=".03"/></g><g filter="url('#c')"><circle cx="1165" cy="885" r="68" fill="url('#d')" fill-opacity=".03"/></g><mask id="e" fill="#fff"><path d="M1250 0a333.948 333.948 0 0 0-236.17 97.826A333.97 333.97 0 0 0 916 334h334V0Z"/></mask><path d="M1250 0a333.948 333.948 0 0 0-236.17 97.826A333.97 333.97 0 0 0 916 334h334V0Z" stroke="#212121" stroke-width="2" mask="url('#e')"/><mask id="f" fill="#fff"><path d="M1233 1296c-20.22 0-40.25 3.98-58.93 11.72a153.966 153.966 0 0 0-49.96 33.39 153.966 153.966 0 0 0-33.39 49.96A153.965 153.965 0 0 0 1079 1450h154v-154Z"/></mask><path d="M1233 1296c-20.22 0-40.25 3.98-58.93 11.72a153.966 153.966 0 0 0-49.96 33.39 153.966 153.966 0 0 0-33.39 49.96A153.965 153.965 0 0 0 1079 1450h154v-154Z" stroke="#212121" stroke-width="2" mask="url('#f')"/><mask id="g" fill="#fff"><path d="M364 1098a334.018 334.018 0 0 0-97.826-236.174A334.013 334.013 0 0 0 30 764v334h334Z"/></mask><path d="M364 1098a334.018 334.018 0 0 0-97.826-236.174A334.013 334.013 0 0 0 30 764v334h334Z" stroke="#212121" stroke-width="2" mask="url('#g')"/><defs><linearGradient id="b" x1="55" y1="272" x2="155" y2="457" gradientUnits="userSpaceOnUse"><stop stop-color="#C4C4C4"/><stop offset="1" stop-color="#C4C4C4" stop-opacity="0"/></linearGradient><linearGradient id="d" x1="1105" y1="797" x2="1205" y2="982" gradientUnits="userSpaceOnUse"><stop stop-color="#C4C4C4"/><stop offset="1" stop-color="#C4C4C4" stop-opacity="0"/></linearGradient><filter id="a" x="27" y="272" width="176" height="176" filterUnits="userSpaceOnUse" color-interpolation-filters="sRGB"><feFlood flood-opacity="0" result="BackgroundImageFix"/><feGaussianBlur in="BackgroundImageFix" stdDeviation="10"/><feComposite in2="SourceAlpha" operator="in" result="effect1_backgroundBlur_13302_4"/><feBlend in="SourceGraphic" in2="effect1_backgroundBlur_13302_4" result="shape"/></filter><filter id="c" x="1077" y="797" width="176" height="176" filterUnits="userSpaceOnUse" color-interpolation-filters="sRGB"><feFlood flood-opacity="0" result="BackgroundImageFix"/><feGaussianBlur in="BackgroundImageFix" stdDeviation="10"/><feComposite in2="SourceAlpha" operator="in" result="effect1_backgroundBlur_13302_4"/><feBlend in="SourceGraphic" in2="effect1_backgroundBlur_13302_4" result="shape"/></filter></defs></svg>