<svg width="765" height="810" fill="none" xmlns="http://www.w3.org/2000/svg"><circle cx="83" cy="83" r="62.5" transform="rotate(22.794 83 83)" stroke="#212121"/><g filter="url('#a')"><circle cx="83" cy="83" r="40" fill="url('#b')" fill-opacity=".03"/></g><mask id="c" fill="#fff"><path d="M739.5 335a237.486 237.486 0 0 0-90.887 18.079 237.49 237.49 0 0 0-128.534 128.534A237.49 237.49 0 0 0 502 572.5h237.5V335Z"/></mask><path d="M739.5 335a237.486 237.486 0 0 0-90.887 18.079 237.49 237.49 0 0 0-128.534 128.534A237.49 237.49 0 0 0 502 572.5h237.5V335Z" stroke="#212121" stroke-width="2" mask="url('#c')"/><defs><linearGradient id="b" x1="47.706" y1="31.235" x2="106.529" y2="140.059" gradientUnits="userSpaceOnUse"><stop stop-color="#C4C4C4"/><stop offset="1" stop-color="#C4C4C4" stop-opacity="0"/></linearGradient><filter id="a" x="23" y="23" width="120" height="120" filterUnits="userSpaceOnUse" color-interpolation-filters="sRGB"><feFlood flood-opacity="0" result="BackgroundImageFix"/><feGaussianBlur in="BackgroundImageFix" stdDeviation="10"/><feComposite in2="SourceAlpha" operator="in" result="effect1_backgroundBlur_13301_3"/><feBlend in="SourceGraphic" in2="effect1_backgroundBlur_13301_3" result="shape"/></filter></defs></svg>