<svg width="737" height="510" viewBox="0 0 737 510" fill="none" xmlns="http://www.w3.org/2000/svg">
<path d="M532.1 323C532.1 314 531 304.6 528.8 295.3C510.6 297.8 491.9 298.8 473.2 298.8C479.2 317.4 480 336.7 473.7 355.3C472.6 358.3 471.6 361.3 470.8 364.4C466.3 376 472.1 383.3 488.2 386.5C495.5 384.3 501.5 380.4 506.4 374.5C514.1 365.5 521.2 356 528.5 346.7C530.4 339 532.1 331.1 532.1 323V323ZM486.1 366.4C485.3 367.7 484.6 369 483.5 370.1C482.7 370.9 481.1 370.1 481.6 369C482.1 367.5 483 366.3 483.8 365C484.7 363.5 487.1 364.9 486.1 366.4V366.4ZM495.4 314.4C495.3 315.6 493.7 315.6 493.6 314.4C493.5 312.6 493.5 310.9 493.5 309.1C493.5 307.9 495.4 307.9 495.4 309.1C495.5 310.9 495.6 312.6 495.4 314.4ZM505.6 349.5C505.2 350.7 503.4 350.5 503.4 349.2C503.4 347.9 503.6 346.6 503.8 345.3C504.1 343.6 506.7 344.3 506.4 346C506.1 347.2 505.9 348.3 505.6 349.5ZM526.8 308.8C526.6 309.8 525.1 309.6 525 308.6C524.9 307.1 524.7 305.1 524.4 303.6C524.1 302 526.6 301.3 526.9 302.9C527.4 305 527.4 306.6 526.8 308.8Z" fill="#9b388a"/>
<path d="M609.3 195C611.2 183.6 610.4 172 612.4 160.6C614.6 147.9 617.3 135.7 616.9 123C616.6 122.7 616.5 122.4 616.5 121.9C616.6 120.9 616.6 119.7 616.6 118.7C616.5 118.1 616.5 117.5 616.4 116.9C616.4 116.6 616.5 116.5 616.6 116.3C616.4 88.7 603.8 50.1 579 36.9C558.2 25.9 535.6 17 512.3 13.2C460.6 4.80004 417 23.2 379.4 58.5C346.8 89.1 317.5 119.3 276 138.1C258.1 146.2 239.7 152.9 220.5 157.2C198 162.1 174.8 165.2 156.8 181C156.7 181.3 156.7 181.5 156.6 181.9C156.4 183 154.7 182.7 154.7 181.6C154.5 169.5 142.8 187.6 141.1 190.6C137.9 196.1 134.9 201.8 133.5 208.1C129.6 226.4 133.2 242.2 142.1 258.5C142.2 258.6 142.1 258.7 142.1 258.8C143.2 258.6 144.3 258.3 145.5 258.1C140.8 252.7 137.2 245.9 135.3 237.4C133.1 227.2 137.9 214.3 147.9 209.8C161.7 203.7 174.2 206.3 187.6 211.1C216.6 206.5 264.2 194.2 276.8 231C279.7 239.4 278.1 246.4 273.9 252.2C274.7 276.7 287.7 298.7 290.4 323.5C290.6 325.5 290.8 327.5 290.9 329.6C291.4 330.1 291.5 330.8 291.1 331.5C291.7 340.7 291.6 350.1 289.5 359.1C288.2 364.7 286.6 369.9 284.6 375.2C282.3 381.1 279.1 382.5 286.6 378C287.4 377.5 288.3 377.9 288.7 378.6C289.5 378.9 290 379.8 289.3 380.7C282.1 389.7 281.2 401 277.9 411.5C278.2 411.3 278.4 411 278.7 410.8C280.1 409.8 281.3 411.9 280.4 413C280.4 413.1 280.3 413.1 280.3 413.2C276.3 428.5 276.3 444.1 281.8 459.1C284.2 465.6 286.8 472 290.2 478.1C290.8 479.2 295.7 492.3 298.2 485.4C298.6 484.2 300.7 484.3 300.6 485.7C302.7 487.1 304.8 488.4 307 489.6C308.1 487.4 309.1 485.2 310.3 483.1C310.5 482.7 310.7 482.2 311 481.8C311.5 480.9 313.3 481.2 313.1 482.4C313.1 482.6 313 482.7 313 482.9C325.6 484.8 318.3 448.6 318.3 444.5C318.2 435.5 318.7 426.3 321.4 417.6C326.6 401 335.2 386.2 344.7 371.7C373 328.7 390.6 284.9 380.6 232.4C380.3 230.6 382.4 229.8 383.4 230.8C385.2 231.6 386.9 232.5 388.6 233.5C385.8 224.3 382.2 216.3 376.2 208.4C375.2 207.1 377.3 205.6 378.5 206.7C386.3 214.1 391.9 225.4 392.1 236.3C392.1 237.2 391 237.9 390.2 237.4C388.2 236.1 386.3 234.9 384.3 233.6C385.3 238.3 386.2 243.1 386.7 247.8C386.8 247.8 386.9 247.7 387 247.7C427.5 256.2 464 251.3 503.6 241.8C498.1 234.9 492 228.7 485.2 223.7C484.6 223.2 484.3 222.1 485.2 221.7C499.2 215.5 468.1 211.8 466.4 211.7C465.6 211.6 465.6 210.4 466.4 210.4C476.9 210.3 485.7 212.8 494.8 217.8C495.5 218.2 495.5 219.3 494.8 219.7C485 224.4 495.9 227.3 499.9 232.1C504.5 237.6 508.7 243.3 512.2 249.7C519.5 262.9 527 277 531.1 291.7C532.2 292.2 532.6 293.7 532 294.6C535.5 308.1 537.3 322.1 534.3 335.9C533.4 339.8 532.4 343.8 531.3 347.7C531.3 348 531.3 348.3 531.1 348.5L531 348.6C526.6 365.1 521.9 381.8 527.9 398.2C528.5 398.3 529 398.7 529 399.4V399.8C529.3 397.9 530 396.1 531 394.4C531.6 393.3 533.5 393.2 534.1 394.4C535.2 396.8 536.4 399.3 537.5 401.7C539.9 399.1 542.3 396.5 545.1 394.4C545.3 394.2 545.6 394.2 545.8 394.2C546.2 393 548.1 392.8 548.6 394.3C551.3 402.3 569.4 382.3 571.9 379.1C578.5 370.8 584.6 361.7 588 351.6C594.8 331.3 596.4 310.4 596.4 289.1C596.4 257.3 594.8 224.5 609 195.2C609 195.1 609.2 195.1 609.3 195V195ZM161 188.2C160.1 190.1 158.7 191.6 157.3 193.2C156.3 194.3 154.6 192.9 155.3 191.7C156.4 189.9 157.4 188.1 159 186.7C160.1 185.6 161.6 186.9 161 188.2ZM200.3 191.4C198.4 193.2 196.4 194.1 193.8 194.7C192 195.1 191.3 192.5 193 191.9C195 191.3 196.9 190.3 198.7 189.4C200 188.8 201.4 190.4 200.3 191.4ZM228.6 172.8C226.5 173.3 224.5 173.7 222.4 174C220.2 174.3 220.2 170.8 222.4 170.5C224.4 170.3 226.3 170.3 228.3 170.2C229.8 170.2 230.1 172.4 228.6 172.8V172.8ZM266.7 187.5C264.7 188.4 262.6 188.9 260.5 189.4C258.6 189.9 257.8 187 259.7 186.5C261.8 185.9 263.9 185.3 266 185.1C267.3 184.9 267.9 187 266.7 187.5ZM291.4 448.4C291.2 449.9 289.3 449.9 289.1 448.4C288.8 446.2 288.9 444.1 288.9 441.9C288.9 440.1 291.7 440.1 291.7 441.9C291.7 444.1 291.7 446.2 291.4 448.4ZM299.7 151.4C298.4 152.3 297.1 153.2 295.7 154C294.1 154.9 292.6 152.4 294.2 151.5C295.6 150.7 297 150 298.4 149.3C300 148.6 301 150.4 299.7 151.4ZM305.1 226.6C304.2 227.7 301.9 227.1 302.6 225.5C303.2 223.9 304.1 222.5 304.6 220.8C305 219.6 307 219.8 306.9 221.1C306.6 223.1 306.3 224.9 305.1 226.6ZM319.7 392.6C319.3 393.7 317.5 393.6 317.6 392.3C317.7 391.3 317.8 390.3 317.8 389.3C318 387.1 321.3 387.8 320.6 389.7C320.3 390.7 320 391.6 319.7 392.6V392.6ZM324.4 320C324.1 318.7 323.7 317.3 323.4 316C322.8 313.6 326.6 313.1 326.7 315.6C326.7 317 326.8 318.4 326.8 319.7C326.8 321.1 324.8 321.3 324.4 320V320ZM351.3 160.6C349.6 162.1 347.9 163.4 346 164.7C344.4 165.7 343 163.3 344.5 162.2C346.3 160.9 348 159.9 350 158.9C351 158.3 352.3 159.7 351.3 160.6V160.6ZM355.3 272.8C355.1 274 353 274 352.8 272.8C352.5 270.3 352.4 267.9 352.4 265.4C352.4 263.3 355.8 263.3 355.7 265.4C355.6 267.9 355.6 270.4 355.3 272.8V272.8ZM374.9 116.3C373 117.9 370.9 118.9 368.6 119.7C367 120.2 366.4 117.8 367.9 117.2C369.9 116.5 371.7 115.5 373.6 114.5C374.6 113.9 375.9 115.4 374.9 116.3V116.3ZM403.5 69.1C402.8 69.6 402 70 401.3 70.5C399.8 71.4 398.7 68.9 400.4 68.3C401.2 68 402 67.7 402.8 67.3C403.8 66.9 404.5 68.6 403.5 69.1V69.1ZM421.3 162.1C422.7 162.3 424.1 162.5 425.4 162.6C427 162.8 427 164.8 425.4 165C424 165.2 422.6 165.4 421.3 165.5C419.1 165.9 419.1 161.9 421.3 162.1ZM431.9 213.9C429.7 215.1 427.4 215.6 424.8 215.6C422.8 215.6 422.8 212.5 424.8 212.6C426.9 212.7 428.9 212.3 431 211.8C432.3 211.4 433.2 213.2 431.9 213.9V213.9ZM452.2 87.3C450.3 89.2 448.3 90.4 445.9 91.3C444.3 91.9 443.6 89.4 445.2 88.7C447.2 87.9 449.1 86.8 451 85.6C451.9 85 453 86.5 452.2 87.3ZM483.5 40.9C486 40.5 488.5 40.1 491 39.9C492.5 39.8 492.7 42.1 491.3 42.5C489 43.1 486.7 43.6 484.3 44C482.3 44.3 481.5 41.3 483.5 40.9ZM491.8 121.5C490.5 122.2 489.5 122.4 488 122.7C485.6 123.1 484.6 119.6 487 119C488.5 118.7 489.6 118.4 491 118.6C492.4 118.8 493.2 120.7 491.8 121.5ZM506.9 169.5C504.9 169.6 503 169.8 501 169.9C499.4 170 499.4 167.2 501 167.4C503 167.5 504.9 167.7 506.9 167.8C508 167.8 508 169.4 506.9 169.5ZM518.1 77.6C517 77.6 515.9 77.4 514.8 77.2C513 76.9 513.7 74 515.6 74.4C516.6 74.6 517.5 74.8 518.5 75.2C519.7 75.7 519.6 77.6 518.1 77.6ZM539.6 119C537.7 118.4 536 118 534 118C532.2 118.1 532.3 115.4 534 115.3C536.4 115.2 538.5 115.5 540.5 116.8C541.6 117.5 541 119.4 539.6 119ZM544.4 235.3C543.7 233.7 543.1 232.1 542.6 230.4C542 228.3 545.3 227.4 545.8 229.5C546.2 231.2 546.5 232.9 546.7 234.6C546.7 235.9 544.9 236.4 544.4 235.3V235.3ZM555.2 330C554.9 331.1 553.1 330.9 553.1 329.7C553.2 327.4 553.5 325.1 553.8 322.8C554.1 320.9 557 321.7 556.7 323.6C556.3 325.8 555.8 327.9 555.2 330ZM560 364.4C559 365.1 558 363.6 558.8 362.8C559.7 361.8 560.1 360.6 560.2 359.3C560.4 357.4 563.4 357.4 563.2 359.3C562.9 361.6 562.1 363.1 560 364.4V364.4ZM569 288.7C568.7 287.5 568.5 286.4 568.2 285.2C567.8 283.4 570.6 283 570.8 284.9C570.9 286.1 571 287.3 571.2 288.4C571.3 289.6 569.3 289.9 569 288.7ZM572 64.3C570.6 63.9 569.4 63.3 568 62.6C566.3 61.7 567.8 59.2 569.5 60C570.7 60.6 571.8 61.1 573 61.9C574.2 62.7 573.5 64.7 572 64.3V64.3ZM577.9 190.1C577.1 188.2 576.6 186.2 576 184.2C575.6 182.6 578 182 578.5 183.5C579.1 185.5 579.6 187.4 580 189.5C580.3 190.9 578.4 191.4 577.9 190.1ZM587 119.2C586.2 117.9 585.6 116.6 584.9 115.3C583.8 112.9 587.3 111.4 588.2 113.9C588.7 115.3 589.2 116.7 589.6 118.1C590 119.7 587.8 120.6 587 119.2V119.2Z" fill="#dc56c5"/>
<path d="M556.5 397.9C554.4 399.3 552.1 400.7 549.8 402.1C548.9 402.6 547.6 402.1 547.3 401.1C547 399.9 546.6 398.7 546.3 397.5C543.9 400.6 541 403.3 538.2 406.1C537.4 406.9 535.8 406.8 535.4 405.7L532.4 399.1C531.8 400.6 531.4 402.1 531 403.8C530.8 404.5 530.1 404.7 529.5 404.4C529.4 404.5 529.4 404.5 529.3 404.5C529.6 407.2 530.4 409.8 532.1 412.3C533.4 414.2 535 415.6 536.6 416.9C536 414.7 536 412.4 537 410.1C537.5 409 539.3 409.8 538.9 410.9C537.5 415 539.9 419.7 543.8 421.5C546.5 422.8 549.3 423.2 552.2 423.4C548.8 420.7 546.5 416.9 547.2 412.6C547.4 411.3 549.5 411.6 549.5 412.9C549.2 419.4 557.6 423.5 563.9 423.1C559.5 416.2 555.1 405.8 556.5 397.9V397.9ZM245 443.3C244.9 444.2 244 445.3 242.9 444.9C242.8 444.9 242.7 444.8 242.6 444.8C245.4 448.6 250.2 450.3 254.7 449.3C251 447.4 247.3 444.8 245.1 441.4C245.1 442 245 442.6 245 443.3V443.3ZM227.3 444.8V444.7C225.8 443.4 224.3 442.1 222.8 440.7C222.5 443 222.3 444.5 221.7 447.1C224.9 450 228.7 450.9 232.8 450.8C230.6 449.2 228.6 447.2 227.3 444.8V444.8ZM239.6 444C239.5 443.9 239.6 443.7 239.6 443.6C237 442.6 237.1 442.6 233.9 440.2C233.7 442.3 232.4 444.2 230.6 445.6C234.3 449.8 239.7 451 245.2 450.3C242.8 448.9 240.8 446.7 239.6 444ZM494.9 388.9C487.6 393 480 393.7 473.1 387.8C471.9 386.8 470.9 385.8 470.1 384.7C469.8 389.8 471.5 394.7 474.6 398.9C474.7 398 474.8 397.1 475.1 396.2C475.5 394.9 477.5 395.1 477.5 396.5C477.2 403.4 480.4 408.5 486.6 410.3C484.2 407.1 482.7 403.1 482.9 398.9C483 397.3 485.3 397.3 485.3 398.9C485.4 406.5 491.3 412.3 498.4 413.9C493.7 406.6 492.4 397.1 494.9 388.9Z" fill="#FFFBD2"/>
<path d="M147.4 255C154.5 245.9 165.6 241.3 176.2 237.6C183.3 236.3 185.2 231.1 181.9 221.9C178.3 218.9 174.3 217.5 169.7 217.7C165.5 218 161.4 218.6 157.3 219.8C151.1 221.7 145.3 224.1 139.6 226.9C137.1 236.3 140.8 246.9 147.4 255V255ZM172.1 229.6C173.1 230.8 171.9 232.7 170.4 231.9C165.5 229.3 160.3 229.9 158.2 235.7C157.8 236.7 156.1 236.7 156.2 235.4C156.8 227.9 166.8 223.1 172.1 229.6V229.6Z" fill="#dc56c5"/>
<path d="M280.9 297.3C259 294.9 237.7 291.3 215.5 291.7C217.6 299.8 218.1 308.5 217.6 316.9C219.6 315.7 221.4 314.4 223.2 312.9C224.3 312 226.1 313.1 225.3 314.5C224.8 315.2 224.3 315.9 223.7 316.5C225.9 338.8 213.4 357.3 208.8 378.5C205.8 392.3 204.7 408.6 207.9 422.5C208.9 427 215.8 452.1 219.9 438.5C220.2 437.7 221 437.3 221.8 437.4C222.1 437.2 222.5 437.2 222.9 437.4C225.1 438.7 227.1 440.3 229.2 441.8C230.2 440.5 230.8 439.1 231.1 437.4C231.3 436.1 233.1 436.3 233.5 437.3C246.3 444.7 244.5 413.1 245.2 406.3C246.2 397.8 247 389 250.7 381.2C259.5 362.9 271.8 344.8 286.9 331C286.5 319.7 284.2 308.3 280.9 297.3C280.9 297.2 280.9 297.3 280.9 297.3V297.3ZM221.4 387.3C221.1 388.2 219.6 388.4 219.4 387.3C219.2 385.9 219.3 384.9 219.5 383.5C219.7 382 222 381.9 221.9 383.5C221.8 384.8 221.8 385.9 221.4 387.3ZM232.4 416.2C232.1 417.4 230.3 417.4 230.1 416.2C229.8 414.9 229.7 413.7 229.8 412.3C229.9 410.4 232.6 410.4 232.7 412.3C232.8 413.8 232.7 414.9 232.4 416.2V416.2ZM248.6 317.6C248.5 318.4 247 318.4 246.9 317.6C246.7 316.5 246.7 315.5 246.7 314.4C246.7 313 248.8 313 248.8 314.4C248.8 315.5 248.8 316.5 248.6 317.6V317.6ZM256.6 353.9C256.2 354.9 254.6 354.3 254.6 353.4C254.6 352.1 254.6 351.9 255 350.7C255.4 349.1 257.6 349.8 257.3 351.3C257.2 352.6 257.1 352.8 256.6 353.9V353.9Z" fill="#9b388a"/>
<path d="M527.7 291.3C523.3 274.4 515.6 257.8 505.2 244.1C468.3 259.6 424.8 258.8 386.6 249.3C388.1 263.3 387.5 277.3 385.2 291.1C432.9 291.7 480 293.1 527.7 291.3Z" fill="#FAA861"/>
<path d="M319.3 486.6C315.1 486.1 315.9 486.4 312.3 484.9C311.5 487.5 310.2 489.8 308.7 492.2C308.3 492.9 307.4 493.1 306.7 492.7C304.3 491.5 302.1 490 300.2 488.1C300.1 489.9 299.9 490.3 298.5 492.6C300.5 495 302.2 497.3 305.3 498.4C307 499 308.7 499.3 310.5 499.4C309.7 498.4 309 497.3 308.7 495.9C308.5 495 309.7 494.5 310.2 495.3C313 499.5 317.2 501 321.7 500.2C319.1 499.1 316.8 497.1 315.4 494.3C314.8 493.2 316.4 492.2 317.1 493.3C320.9 498.9 327.4 499.1 332.5 495.7C327.2 494.7 321.9 491.2 319.3 486.6V486.6Z" fill="#FFFBD2"/>
<path d="M721.7 254.1C704.1 258.8 684.9 256.5 667.6 251.3C646.3 244.8 626.4 233.7 603.6 235.7C601.9 252 601.6 268.9 601 285.7C617.4 284.6 632.6 289.8 647.3 296.8C670 307.7 690 317.4 715.9 316.1C716.2 316.1 716.3 316.2 716.5 316.3C717.4 305.2 724.3 295.8 724.6 284.5C724.8 274.3 722.7 264.4 721.7 254.1C721.7 254.2 721.7 254.2 721.7 254.1Z" fill="#FAA861"/>
<path d="M228.4 235C238.9 243.2 252.3 247 261 257.4C269 250.3 272.6 240.5 271.4 231.7C264.5 227.4 257.3 224.1 249.6 221.5C245.5 220.1 240.7 218.2 236.4 218.5C228.6 219 221 229.2 228.4 235ZM246.6 230C246.5 231.4 244.8 231.9 244 230.7C243.2 229.5 242.4 227.7 240.7 227.5C238.4 227.2 237.1 228.7 236.3 230.6C235.7 232 233.8 230.9 234 229.6C235.1 222.5 247.2 222.6 246.6 230Z" fill="#dc56c5"/>
<path d="M117.9 374.9C136.1 362.5 133.4 332.8 126.6 314.3C104.2 325.6 108.9 356.8 117.9 374.9ZM15 271.4C34.8 278.4 50.8 272.6 65.6 259.1C46.8 255.4 26.8 253.5 15 271.4ZM53.1 362.8C62.8 359.8 71.6 355 78.1 346.8C85.1 337.9 87.3 328.5 89.8 318C89.6 318.2 89.3 318.3 89 318.3C63.8 315 54.8 342.7 53.1 362.8V362.8Z" fill="#A3CF64"/>
<path d="M251.2 211.3C231.8 207 212.1 211.4 192.7 214.1C192.5 214.5 192.2 214.7 191.7 214.6C191.5 214.5 191.2 214.4 190.9 214.4C189.8 214.6 188.7 214.7 187.6 214.9C186.4 215 185.8 214 185.8 212.9C174.1 209.5 160.1 206.1 149.8 213.1C145.2 216.2 142.3 219.9 140.6 223.9C154.4 216.2 182.1 206.2 187.9 224.6C190.3 232.2 187.1 237.1 180.1 240.3C174.6 242.8 168.8 244 163.6 247.2C158.6 250.3 154.2 254.1 149.5 257.5C152.1 260.2 154.9 262.5 158 264.3C178.5 276 203.4 275.2 225.9 270.5C236.3 268.3 248.8 266.3 257.8 260.1C258.2 259.9 258.5 259.6 258.8 259.3C253.6 255.4 248.9 251.1 243.2 247.9C238.4 245.2 233 242.9 228.7 239.5C222.3 234.4 218.4 229.1 222.3 221.2C230 205.9 258.1 218.9 270.3 227.3C267.7 219.8 261.5 213.6 251.2 211.3V211.3ZM193.6 238.2C195.9 236.2 198.6 235.5 201.3 235.7C203.1 235.6 204.9 236.2 206.3 237.4C206.7 237.7 207.2 237.8 207.6 238.1C208.2 238.5 208.2 239.2 208.1 239.9C209.2 244 202.6 246.8 199.6 247.1C197.2 247.4 194.3 246.8 193 244.5C192 242.5 191.6 239.8 193.6 238.2V238.2ZM212.4 258.5C209.8 263.5 203.6 263.1 200.7 259.8C200 261.4 199 262.7 197.3 263.4C193.4 264.9 189 262.8 188.7 258.3C188.6 256.7 191 256.5 191.4 257.9C192.2 260.7 196.5 261.1 197.9 258.5C198.9 256.6 199 254.8 198.5 252.7C198.1 251.1 200.4 250.5 201 252C201.1 252.2 201.1 252.4 201.1 252.6C201.4 252.8 201.6 253 201.7 253.5C201.9 258.5 207 260.7 210.4 256.7C211.3 255.6 213.1 257.1 212.4 258.5V258.5Z" fill="#FFFBD2"/>
<path d="M102.4 256.7C108 232.3 80.5 216.3 60.9 210.2C64.5 231.7 80.5 251.5 102.4 256.7Z" fill="#A3CF64"/>
<path d="M279.7 293.1C275.9 281.3 270.6 268.5 270.6 256C256.6 269.7 227.1 275.3 213.7 276.6C190.2 278.8 162.7 276.2 146.9 259.7C107.9 269.6 58.7 279.2 29.2 308.1C29 308.3 28.9 308.3 28.7 308.3C29.6 310.6 30 313.1 29.3 315.4C47.7 310.7 61.5 298.4 81.1 295.5C100.8 292.6 120.7 290.7 140.6 289.9C165 288.8 189.5 288 214 287.6C236.6 287.2 257.7 290.7 279.9 293.4C279.7 293.3 279.7 293.2 279.7 293.1Z" fill="#FAA861"/>
<path d="M199.7 247.1C202.7 246.8 209.3 244 208.2 239.9C208.3 239.2 208.2 238.5 207.7 238.1C207.3 237.8 206.8 237.6 206.4 237.4C205 236.1 203.2 235.6 201.4 235.7C198.7 235.5 196 236.3 193.7 238.2C191.7 239.8 192.1 242.6 193.2 244.5C194.4 246.8 197.3 247.4 199.7 247.1V247.1ZM210.3 256.8C206.9 260.8 201.8 258.6 201.6 253.6C201.6 253.2 201.3 252.9 201 252.7C200.9 252.5 200.9 252.3 200.9 252.1C200.3 250.6 198.1 251.2 198.4 252.8C198.9 254.8 198.8 256.7 197.8 258.6C196.5 261.2 192.1 260.8 191.3 258C190.9 256.6 188.6 256.8 188.6 258.4C188.8 262.8 193.2 264.9 197.2 263.5C199 262.8 200 261.5 200.6 259.9C203.6 263.1 209.7 263.6 212.3 258.6C213.1 257.1 211.3 255.6 210.3 256.8V256.8ZM158.1 235.6C160.3 229.8 165.4 229.2 170.3 231.8C171.8 232.6 173.1 230.8 172 229.5C166.7 223 156.7 227.8 156 235.3C155.9 236.6 157.7 236.6 158.1 235.6V235.6ZM236.3 230.6C237.1 228.7 238.4 227.2 240.7 227.5C242.4 227.7 243.2 229.5 244 230.7C244.8 231.9 246.5 231.4 246.6 230C247.2 222.5 235 222.5 234 229.6C233.8 230.9 235.7 232 236.3 230.6Z" fill="#332833"/>
<path d="M724.5 252.8C725.1 251.6 724.5 249.9 723 250.1C699.8 253.1 679.1 250.9 656.8 243.9C639.1 238.3 622.7 230.1 604 233.5C605.2 222.9 607.1 212.5 610.2 202.7C610.6 202.6 610.9 202.4 611.1 202C618.2 188.1 615.6 171.4 617.9 156.3C619.7 144.9 621.3 134 619.4 122.8C619.5 122.7 619.6 122.6 619.6 122.4C622.9 100.4 614.4 80.4 604.6 61.2C593.4 39.2 575.9 30.5 553.8 21.5C508.5 2.99997 460.4 -0.400026 416.9 24C396.6 35.3 379.4 51.6999 363.2 68.0999C342.1 89.4999 320.5 108.5 294.5 123.9C269.6 138.7 242.2 148.5 214.1 154.8C193.5 159.4 173.3 163.7 157.2 177.8C157.4 176.3 157.6 175 157.9 172.2C158 171.1 156.5 170.2 155.6 170.9C128.1 192 119.4 230.1 140.5 259.1C118.3 263.4 96.6 270.2 75.5 278.3C58.4 284.9 39.2 291.8 27.7 306.7C27.2 306.6 26.5 307 26.7 307.7C27.7 311 27 313.6 26.8 316.9C26.8 317.4 27.1 317.7 27.6 317.7C27.8 317.9 28.2 318.1 28.6 318C45.7 315.6 59.5 303.8 76.6 300.4C99.6 295.8 123.7 295 147.1 293.9C169.2 292.9 191.3 292.4 213.4 291.8C214.6 301.3 215.3 310.3 214.1 319.9C214 320.9 215.3 321.9 216.2 321.5C218.2 320.7 220 319.7 221.6 318.5C217.5 358 179.5 415.6 218.2 449.1C218.8 449.6 219.6 449.7 220.3 449.5C224.4 453.7 231 455.8 236.5 453.2C236.6 453.2 236.6 453.1 236.6 453.1C240.4 454.5 244.6 454.6 248.3 452.7C248.6 452.6 248.7 452.4 248.8 452.1C252.3 453 256.1 452.8 259.4 450.9C260.4 450.4 260.5 448.7 259.4 448.2C254.3 446 250.8 442.4 246.4 439.3C246 439 245.6 439.1 245.3 439.3C247.4 418.7 247.8 396.4 256.8 377.7C264.3 362 275.9 349 287.2 336C287.4 352.4 284.2 368.7 275.6 383.6C274.8 385 276.1 387.2 277.9 386.6C280 385.8 281.2 385.4 282.2 385C276.5 394.4 276 406.9 271.6 416.9C270.8 418.8 273 420.9 274.6 419.2C275.6 418.2 276.4 417.2 277.3 416.2C269 443.4 280.6 470.3 294.8 493.6C295.2 494.2 295.8 494.5 296.4 494.5C298.9 501.1 307.2 504 313.6 502.2C317.3 504.3 322.4 504.4 325.8 501.7C325.9 501.6 325.9 501.5 326 501.3C329.6 501.5 333.3 500 335.7 496.5C335.8 496.4 335.7 496.3 335.8 496.2C336.7 496.2 337.5 496.1 338.4 496C339.5 495.8 339.6 493.9 338.4 493.7C335 493.1 331.5 492.5 328.3 491C325.7 489.8 323.8 488 321.9 486C326.5 463.4 319 441.2 325 418.5C331 395.6 346.8 375.8 359.4 356.3C371.9 337 380.7 315.6 384.8 293.5C412.7 296.5 441.6 298.8 470.3 298.9C476.1 319.9 475.8 338.4 468.6 359C465.8 367 464.5 374.8 467.9 381.4C465.6 389.5 468.1 398.7 475.1 403.8C476.9 409.7 482.8 414.4 489.3 413.7C489.5 413.7 489.5 413.6 489.7 413.5C492.6 415.7 496.1 417 500 416.7C500.4 416.7 500.7 416.4 500.9 416.1C501.6 415.9 502.3 415.3 502 414.5C498.2 404.8 497.4 396.5 499.2 386.4C510 378.6 519.9 364.7 526.4 355.3C522.3 370.6 518.8 385.5 526.3 401C525.1 409.9 531.2 421.3 540.3 422.9H540.5C544.9 426.8 551.9 427.3 557.4 426.7H557.5C561.2 428.1 565.3 428.5 568.6 427.3C569.9 426.8 570.9 425.2 570 423.9C563.9 415.7 561.5 405.9 560.3 396C560.3 395.8 560.2 395.8 560.1 395.6C595 369.7 599.5 330 601.1 288.7C641.4 289.1 675.8 329.5 716.5 319.4C716.9 319.3 717.2 319.1 717.3 318.8C718.2 319.3 719.5 319.2 719.8 318C721.9 308 728.3 299.3 729.4 289C730.6 277.1 729.3 265.2 725.5 253.9C725.2 253.3 724.8 253 724.5 252.8V252.8ZM213.8 287.6C189.3 288 164.9 288.8 140.4 289.9C120.5 290.8 100.6 292.6 80.9 295.5C61.3 298.4 47.6 310.8 29.1 315.4C29.8 313.1 29.4 310.6 28.5 308.3C28.7 308.3 28.9 308.2 29 308.1C58.5 279.2 107.7 269.7 146.7 259.7C162.5 276.2 190 278.8 213.5 276.6C226.9 275.3 256.3 269.7 270.4 256C270.4 268.5 275.7 281.4 279.5 293.1C279.5 293.2 279.6 293.3 279.6 293.4C257.5 290.7 236.4 287.2 213.8 287.6ZM222.3 221C218.3 228.9 222.3 234.1 228.7 239.3C233 242.8 238.4 245.1 243.2 247.7C248.9 250.9 253.7 255.2 258.8 259.1C258.5 259.4 258.2 259.6 257.8 259.9C248.8 266.1 236.3 268.1 225.9 270.3C203.4 275 178.4 275.8 158 264.1C155 262.4 152.1 260 149.5 257.3C154.2 253.8 158.6 250 163.6 247C168.8 243.8 174.6 242.6 180.1 240.1C187.1 236.9 190.3 232 187.9 224.4C182.2 206 154.4 216.1 140.6 223.7C142.3 219.7 145.2 216 149.8 212.9C160.1 206 174.1 209.3 185.8 212.7C185.8 213.7 186.4 214.8 187.6 214.7C188.7 214.6 189.8 214.4 190.9 214.2C191.1 214.3 191.4 214.4 191.7 214.4C192.2 214.6 192.6 214.3 192.7 213.9C212.1 211.2 231.8 206.8 251.2 211.1C261.5 213.4 267.8 219.5 270.3 226.9C258 218.7 230 205.8 222.3 221V221ZM271.4 231.7C272.6 240.6 269.1 250.4 261 257.4C252.3 247 238.9 243.2 228.4 235C221 229.2 228.5 219 236.3 218.5C240.6 218.2 245.5 220.1 249.5 221.5C257.3 224.1 264.5 227.3 271.4 231.7V231.7ZM157.3 219.8C161.4 218.6 165.4 217.9 169.7 217.7C174.3 217.5 178.4 218.9 181.9 221.9C185.2 231.1 183.3 236.3 176.2 237.6C165.6 241.3 154.5 245.9 147.4 255C140.8 246.9 137.1 236.3 139.6 226.8C145.3 224.1 151.1 221.6 157.3 219.8V219.8ZM221.8 447.1C222.3 444.5 222.6 443.1 222.9 440.7C224.3 442.1 225.8 443.4 227.4 444.7V444.8C228.7 447.2 230.7 449.2 232.9 450.8C228.7 450.9 225 449.9 221.8 447.1V447.1ZM230.6 445.7C232.5 444.2 233.7 442.4 233.9 440.3C237.1 442.7 237.1 442.7 239.6 443.7C239.6 443.8 239.5 443.9 239.6 444.1C240.8 446.9 242.8 449.1 245.2 450.5C239.7 451 234.4 449.8 230.6 445.7V445.7ZM254.8 449.2C250.3 450.2 245.5 448.5 242.7 444.7C242.8 444.7 242.9 444.8 243 444.8C244.1 445.2 245 444.2 245.1 443.2C245.2 442.6 245.2 441.9 245.3 441.3C247.3 444.7 251 447.3 254.8 449.2ZM250.9 381.3C247.2 389.1 246.3 397.9 245.4 406.4C244.6 413.2 246.4 444.8 233.7 437.4C233.3 436.3 231.5 436.2 231.3 437.5C231 439.2 230.3 440.6 229.4 441.9C227.3 440.4 225.3 438.8 223.1 437.5C222.7 437.3 222.3 437.3 222 437.5C221.2 437.4 220.4 437.7 220.1 438.6C216 452.2 209.1 427.1 208.1 422.6C204.9 408.6 206 392.3 209 378.6C213.6 357.4 226.1 338.9 223.9 316.6C224.5 316 225 315.4 225.5 314.6C226.4 313.2 224.5 312.1 223.4 313C221.6 314.5 219.7 315.8 217.8 317C218.3 308.6 217.9 299.9 215.7 291.8C237.8 291.4 259.1 295 281.1 297.4H281.2C284.5 308.5 286.7 319.9 287.4 331.2C272 344.9 259.7 363 250.9 381.3V381.3ZM332.5 495.7C327.4 499.1 320.8 498.9 317.1 493.3C316.4 492.2 314.8 493.2 315.4 494.3C316.8 497.1 319.1 499 321.7 500.2C317.2 501 313 499.4 310.2 495.3C309.7 494.5 308.5 495 308.7 495.9C309 497.2 309.7 498.3 310.5 499.4C308.8 499.3 307 499 305.3 498.4C302.2 497.3 300.4 495 298.5 492.6C299.8 490.3 300 489.9 300.2 488.1C302.1 489.9 304.3 491.4 306.7 492.7C307.4 493.1 308.3 492.9 308.7 492.2C310.2 489.8 311.5 487.5 312.3 484.9C316 486.4 315.2 486.2 319.3 486.6C321.9 491.2 327.2 494.7 332.5 495.7V495.7ZM385.2 291C387.5 277.3 388.1 263.3 386.6 249.2C424.8 258.6 468.4 259.5 505.2 244C515.5 257.8 523.2 274.4 527.7 291.2C480 293.1 432.9 291.7 385.2 291V291ZM498.4 413.8C491.3 412.1 485.3 406.4 485.3 398.8C485.3 397.2 482.9 397.2 482.9 398.8C482.7 402.9 484.1 407 486.6 410.2C480.4 408.4 477.2 403.3 477.5 396.4C477.6 395 475.5 394.8 475.1 396.1C474.8 397 474.7 397.9 474.6 398.8C471.5 394.6 469.8 389.8 470.1 384.6C471 385.7 472 386.7 473.1 387.7C480.1 393.6 487.6 392.9 494.9 388.8C492.4 397.1 493.7 406.6 498.4 413.8ZM506.3 374.6C501.4 380.4 495.4 384.4 488.1 386.6C472 383.4 466.2 376 470.7 364.5C471.6 361.4 472.5 358.4 473.6 355.4C479.9 336.8 479 317.5 473.1 298.9C491.9 298.9 510.5 297.9 528.7 295.4C530.9 304.8 532 314.1 532 323.1C532 331.2 530.3 339.1 528.3 346.8C521.1 356.1 514 365.5 506.3 374.6V374.6ZM563.9 423.2C557.6 423.5 549.2 419.5 549.5 413C549.6 411.7 547.4 411.4 547.2 412.7C546.5 417 548.8 420.7 552.2 423.5C549.3 423.2 546.5 422.8 543.8 421.6C539.9 419.8 537.5 415.1 538.9 411C539.3 409.9 537.5 409.1 537 410.2C536 412.5 536 414.9 536.6 417C534.9 415.7 533.4 414.3 532.1 412.4C530.4 410 529.7 407.3 529.3 404.6C529.4 404.6 529.4 404.5 529.5 404.5C530.1 404.7 530.8 404.5 531 403.9C531.4 402.2 531.8 400.7 532.4 399.2L535.4 405.8C535.9 406.9 537.5 406.9 538.2 406.2C540.9 403.4 543.9 400.7 546.3 397.6C546.6 398.8 547 400 547.3 401.2C547.6 402.3 548.8 402.7 549.8 402.2C552.2 400.9 554.4 399.5 556.5 398C555.1 405.8 559.5 416.2 563.9 423.2V423.2ZM596.3 289.1C596.3 310.4 594.6 331.3 587.9 351.6C584.5 361.8 578.5 370.9 571.8 379.1C569.2 382.3 551.1 402.3 548.5 394.3C548 392.8 546.1 393.1 545.7 394.2C545.4 394.2 545.2 394.2 545 394.4C542.2 396.5 539.8 399.1 537.4 401.7C536.3 399.3 535.1 396.8 534 394.4C533.4 393.2 531.6 393.3 530.9 394.4C529.9 396.1 529.2 397.9 528.9 399.8V399.4C528.9 398.7 528.4 398.3 527.8 398.2C521.8 381.7 526.4 365.1 530.9 348.6L531 348.5C531.2 348.2 531.2 347.9 531.2 347.7C532.3 343.8 533.3 339.8 534.2 335.9C537.2 322.1 535.4 308 531.9 294.6C532.6 293.7 532.2 292.2 531 291.7C526.8 277 519.3 262.9 512.1 249.7C508.6 243.4 504.4 237.6 499.8 232.1C495.8 227.4 484.9 224.4 494.7 219.7C495.4 219.3 495.4 218.2 494.7 217.8C485.6 212.8 476.7 210.3 466.3 210.4C465.5 210.4 465.5 211.6 466.3 211.7C468 211.8 499.1 215.5 485.1 221.7C484.2 222.1 484.5 223.2 485.1 223.7C491.8 228.7 498 234.8 503.5 241.8C463.9 251.3 427.5 256.2 386.9 247.7C386.8 247.7 386.7 247.7 386.6 247.8C386 243.1 385.2 238.3 384.2 233.6C386.1 234.9 388.1 236.2 390.1 237.4C390.9 237.9 392 237.2 392 236.3C391.8 225.4 386.2 214.1 378.4 206.7C377.3 205.6 375.1 207.1 376.1 208.4C382.1 216.3 385.7 224.3 388.5 233.5C386.8 232.5 385.1 231.6 383.3 230.8C382.3 229.8 380.2 230.6 380.5 232.4C390.5 284.9 372.9 328.7 344.6 371.7C335.1 386.2 326.5 401 321.3 417.6C318.6 426.3 318 435.4 318.2 444.5C318.3 448.7 325.5 484.8 312.9 482.9C312.9 482.7 313 482.6 313 482.4C313.2 481.2 311.4 481 310.9 481.8C310.6 482.2 310.4 482.7 310.2 483.1C309 485.2 308 487.4 306.9 489.6C304.7 488.5 302.6 487.2 300.5 485.7C300.5 484.3 298.5 484.2 298.1 485.4C295.6 492.3 290.7 479.2 290.1 478.1C286.7 472 284.1 465.6 281.7 459.1C276.2 444.1 276.2 428.5 280.2 413.2C280.2 413.1 280.3 413.1 280.3 413C281.2 411.9 280 409.8 278.6 410.8C278.3 411 278.1 411.3 277.8 411.5C281.1 400.9 282 389.7 289.2 380.7C289.9 379.8 289.4 378.9 288.6 378.6C288.1 377.9 287.3 377.5 286.5 378C279.1 382.5 282.3 381.1 284.5 375.2C286.5 369.9 288.1 364.7 289.4 359.1C291.5 350.1 291.6 340.7 291 331.5C291.5 330.8 291.3 330 290.8 329.6C290.6 327.6 290.5 325.5 290.3 323.5C287.7 298.7 274.6 276.6 273.8 252.2C278 246.4 279.6 239.5 276.7 231C264 194.2 216.5 206.5 187.5 211.1C174.1 206.3 161.6 203.7 147.8 209.8C137.8 214.2 132.9 227.1 135.2 237.4C137.1 245.9 140.7 252.7 145.4 258.1C144.3 258.3 143.2 258.6 142 258.8V258.5C133.1 242.2 129.5 226.4 133.4 208.1C134.7 201.8 137.8 196.1 141 190.6C142.7 187.7 154.4 169.6 154.6 181.6C154.6 182.7 156.3 183 156.5 181.9C156.6 181.5 156.6 181.3 156.7 181C174.6 165.2 197.8 162.1 220.4 157.2C239.6 153 258.1 146.3 275.9 138.1C317.4 119.3 346.7 89.1 379.3 58.5C417 23.2 460.5 4.69999 512.2 13.2C535.5 17 558.2 25.9 578.9 36.9C603.7 50.1 616.3 88.7 616.5 116.3C616.4 116.4 616.3 116.6 616.3 116.9C616.4 117.5 616.4 118.1 616.5 118.7C616.5 119.8 616.5 120.9 616.4 121.9C616.4 122.3 616.5 122.7 616.8 123C617.3 135.7 614.6 147.9 612.3 160.6C610.3 172.1 611.1 183.6 609.2 195C609.1 195.1 608.9 195.1 608.9 195.3C594.7 224.5 596.3 257.4 596.3 289.1V289.1ZM716.5 316.4C716.3 316.3 716.1 316.2 715.9 316.2C690 317.5 670.1 307.9 647.3 296.9C632.6 289.8 617.4 284.7 601 285.8C601.6 269.1 601.9 252.1 603.6 235.8C626.3 233.8 646.3 244.9 667.6 251.4C684.9 256.6 704.1 258.9 721.7 254.2V254.3C722.8 264.5 724.9 274.4 724.6 284.6C724.3 295.9 717.4 305.3 716.5 316.4V316.4Z" fill="#332833"/>
<path d="M102.5 258.8C103.1 259.7 104.3 260.2 105.1 259.2C111.5 251 103.9 235.9 98.2 229.1C88.2 217.3 74.7 211.3 59.9 207.9C59.2 207.7 58.8 208.2 58.7 208.7C58.2 208.9 57.8 209.3 57.7 210C56.9 221.8 62.8 232.2 70.5 240.8C78 249.2 90.7 259.2 102.5 258.8ZM102.4 256.7C80.5 251.5 64.5 231.7 60.9 210.2C80.4 216.3 107.9 232.2 102.4 256.7ZM70.9 258C71.7 256.6 69.9 255.2 68.7 256.3L68.2 256.8C49.7 252.2 20.5 247.9 12 270.7C11.1 270.9 10.6 272.4 11.6 272.9C31.4 282.8 59.5 278.4 70.9 258ZM15 271.4C26.8 253.5 46.8 255.4 65.6 259.1C50.8 272.6 34.8 278.4 15 271.4ZM90.2 316.4C90.2 316.5 90.1 316.7 90.1 316.8C90 316.4 89.8 315.9 89.3 315.9C78.5 314.1 67.4 318.4 60.9 327.3C54.1 336.5 47.5 352.1 50 363.9C49.9 363.9 49.9 363.9 49.8 364C48.7 364.3 48.9 366.3 50.1 366.1C50.4 366.1 50.6 366 50.9 366C51.4 366.2 52 366.1 52.4 365.8C74.8 362.1 96.8 340.6 93 316.5C92.8 314.9 90.5 315 90.2 316.4ZM78.1 346.8C71.6 355 62.8 359.7 53.1 362.8C54.8 342.7 63.8 315 89 318.3C89.4 318.3 89.6 318.2 89.8 318C87.3 328.6 85.1 337.9 78.1 346.8V346.8ZM125.7 311.8C100.9 318.9 102.2 360.5 115.6 376.7C114.9 377.7 115.8 379.2 117.2 379C128.6 376.9 132 363.6 134.3 353.8C137.6 339.5 134.5 324 127.7 311.2C127.2 310.2 125.5 310.8 125.7 311.8ZM117.9 374.9C108.9 356.8 104.2 325.7 126.6 314.3C133.3 332.8 136.1 362.5 117.9 374.9ZM159 186.6C157.4 188 156.4 189.8 155.3 191.6C154.6 192.8 156.3 194.2 157.3 193.1C158.7 191.5 160.2 190 161 188.1C161.6 186.9 160.1 185.6 159 186.6ZM198.8 189.5C196.9 190.4 195.1 191.4 193.1 192C191.3 192.5 192.1 195.2 193.9 194.8C196.4 194.2 198.5 193.3 200.4 191.5C201.4 190.4 200 188.8 198.8 189.5ZM228.3 170.2C226.3 170.2 224.4 170.2 222.4 170.5C220.2 170.8 220.2 174.3 222.4 174C224.5 173.8 226.6 173.3 228.6 172.8C230.1 172.4 229.8 170.2 228.3 170.2V170.2ZM266.1 185.1C263.9 185.3 261.9 186 259.8 186.5C257.9 187 258.7 189.9 260.6 189.4C262.7 188.8 264.8 188.3 266.8 187.5C267.9 187 267.3 184.9 266.1 185.1ZM298.5 149.3C297 149.9 295.7 150.7 294.3 151.5C292.7 152.4 294.1 154.9 295.8 154C297.2 153.2 298.5 152.4 299.8 151.4C301 150.4 300 148.6 298.5 149.3ZM350 158.8C348.1 159.8 346.3 160.8 344.5 162.1C343 163.2 344.4 165.7 346 164.6C347.9 163.4 349.6 162 351.3 160.5C352.3 159.7 351 158.3 350 158.8V158.8ZM373.5 114.5C371.6 115.5 369.8 116.5 367.8 117.2C366.3 117.7 366.9 120.2 368.5 119.7C370.9 118.9 372.9 117.9 374.8 116.3C375.9 115.4 374.6 113.9 373.5 114.5V114.5ZM402.8 67.3C402 67.6 401.2 67.9 400.4 68.3C398.7 69 399.9 71.4 401.3 70.5C402.1 70 402.8 69.6 403.5 69.1C404.5 68.6 403.8 66.9 402.8 67.3V67.3ZM450.9 85.7C449.1 86.9 447.2 88 445.1 88.8C443.6 89.4 444.2 92 445.8 91.4C448.2 90.4 450.3 89.2 452.1 87.4C453 86.5 451.9 85 450.9 85.7ZM491 39.9C488.5 40.1 486 40.5 483.5 40.9C481.5 41.2 482.3 44.3 484.3 43.9C486.7 43.5 489 43 491.3 42.4C492.7 42.1 492.5 39.8 491 39.9ZM518.5 75.2C517.5 74.8 516.6 74.6 515.6 74.4C513.8 74 513 76.9 514.8 77.2C515.9 77.4 517 77.5 518.1 77.6C519.6 77.6 519.7 75.7 518.5 75.2ZM569.6 60C567.9 59.2 566.4 61.7 568.1 62.6C569.4 63.3 570.6 63.9 572.1 64.3C573.6 64.8 574.2 62.7 573.1 61.9C571.9 61.1 570.8 60.5 569.6 60V60ZM491 118.6C489.5 118.4 488.4 118.7 487 119C484.6 119.5 485.6 123.1 488 122.7C489.5 122.4 490.5 122.3 491.8 121.5C493.2 120.7 492.4 118.8 491 118.6ZM425.4 162.7C424 162.5 422.6 162.3 421.3 162.2C419.1 161.9 419.1 166 421.3 165.7C422.7 165.5 424.1 165.3 425.4 165.2C427 164.9 427 162.9 425.4 162.7ZM304.5 220.8C304 222.4 303.2 223.9 302.5 225.5C301.8 227.1 304.2 227.7 305 226.6C306.2 225 306.5 223.2 306.7 221.2C306.9 219.8 304.9 219.6 304.5 220.8V220.8ZM352.4 265.4C352.5 267.9 352.5 270.4 352.8 272.8C353 274 355.1 274 355.3 272.8C355.6 270.3 355.7 267.9 355.7 265.4C355.7 263.3 352.3 263.3 352.4 265.4V265.4ZM323.4 316C323.7 317.3 324.1 318.7 324.4 320C324.7 321.3 326.8 321 326.7 319.7C326.7 318.3 326.6 316.9 326.6 315.6C326.6 313.2 322.8 313.7 323.4 316V316ZM317.8 389.4C317.7 390.4 317.6 391.4 317.6 392.4C317.5 393.7 319.4 393.8 319.7 392.7C320 391.7 320.3 390.8 320.6 389.8C321.2 387.8 317.9 387.2 317.8 389.4V389.4ZM288.9 441.9C288.9 444.1 288.9 446.2 289.1 448.4C289.3 449.9 291.2 449.9 291.4 448.4C291.7 446.2 291.6 444.1 291.6 441.9C291.7 440.1 288.9 440.1 288.9 441.9ZM229.8 412.4C229.7 413.8 229.8 414.9 230.1 416.3C230.4 417.5 232.2 417.5 232.4 416.3C232.7 415 232.8 413.8 232.7 412.4C232.6 410.5 229.9 410.5 229.8 412.4V412.4ZM219.4 383.5C219.2 384.9 219.1 385.9 219.3 387.3C219.5 388.4 221 388.2 221.3 387.3C221.7 386 221.7 384.9 221.8 383.5C221.9 381.8 219.6 381.9 219.4 383.5ZM255 350.7C254.7 351.9 254.6 352.1 254.6 353.4C254.6 354.4 256.1 354.9 256.6 353.9C257.1 352.7 257.2 352.6 257.4 351.3C257.6 349.8 255.4 349.1 255 350.7V350.7ZM246.7 314.4C246.7 315.5 246.7 316.5 246.9 317.6C247 318.4 248.5 318.4 248.6 317.6C248.8 316.5 248.8 315.5 248.8 314.4C248.8 313 246.7 313 246.7 314.4V314.4ZM431 211.7C428.9 212.2 427 212.6 424.8 212.5C422.8 212.4 422.8 215.6 424.8 215.5C427.3 215.4 429.6 215 431.9 213.8C433.2 213.2 432.3 211.4 431 211.7V211.7ZM506.9 167.7C504.9 167.6 503 167.4 501 167.3C499.4 167.2 499.4 170 501 169.8C503 169.7 504.9 169.5 506.9 169.4C508 169.4 508 167.8 506.9 167.7ZM534.1 115.3C532.4 115.4 532.3 118.1 534.1 118C536.1 117.9 537.8 118.4 539.7 119C541 119.4 541.7 117.6 540.6 116.9C538.5 115.5 536.4 115.2 534.1 115.3ZM584.9 115.3C585.5 116.7 586.2 118 587 119.2C587.8 120.6 590.1 119.7 589.6 118.1C589.2 116.6 588.7 115.3 588.2 113.9C587.3 111.4 583.7 112.9 584.9 115.3V115.3ZM576 184.3C576.6 186.3 577.1 188.2 577.9 190.2C578.4 191.5 580.2 191 580 189.6C579.6 187.6 579.1 185.6 578.5 183.6C578 182 575.6 182.7 576 184.3ZM542.6 230.4C543.1 232.1 543.7 233.7 544.4 235.3C544.9 236.4 546.8 235.9 546.7 234.7C546.6 232.9 546.3 231.3 545.8 229.6C545.2 227.5 542 228.3 542.6 230.4V230.4ZM568.2 285.2C568.5 286.4 568.7 287.5 569 288.7C569.3 289.9 571.2 289.6 571.1 288.4C571 287.2 570.9 286 570.7 284.9C570.6 283 567.8 283.4 568.2 285.2ZM553.9 322.9C553.6 325.2 553.3 327.5 553.2 329.8C553.1 331 555 331.2 555.3 330.1C555.9 328 556.4 325.9 556.8 323.7C557.1 321.7 554.1 321 553.9 322.9ZM560.2 359.3C560.1 360.6 559.6 361.8 558.8 362.8C558.1 363.6 559 365.1 560 364.4C562 363.1 562.9 361.7 563.2 359.3C563.4 357.4 560.4 357.3 560.2 359.3V359.3ZM493.5 309.1C493.4 310.9 493.4 312.6 493.6 314.4C493.7 315.6 495.3 315.6 495.4 314.4C495.5 312.6 495.5 310.9 495.5 309.1C495.4 307.8 493.6 307.8 493.5 309.1ZM503.8 345.3C503.6 346.6 503.4 347.9 503.4 349.2C503.4 350.5 505.2 350.7 505.6 349.5C506 348.3 506.2 347.2 506.4 346C506.7 344.3 504.1 343.6 503.8 345.3ZM483.8 365C483 366.3 482.1 367.5 481.6 369C481.2 370.1 482.8 370.9 483.5 370.1C484.6 369 485.3 367.7 486.1 366.4C487.1 364.9 484.7 363.5 483.8 365V365ZM524.4 303.5C524.7 304.9 524.9 307 525 308.5C525.1 309.5 526.5 309.8 526.8 308.7C527.3 306.6 527.3 304.9 526.9 302.8C526.6 301.2 524.1 301.9 524.4 303.5Z" fill="#332833"/>
<path d="M574.6 254.6C560.9 219.7 532 197.4 494.6 191.4C497.7 188.9 501.4 186.6 505 185.2C492 189.7 475.4 187 461.7 186.4C437.2 185.3 411.8 183.5 387.5 183C389.1 186.3 390.2 190 390.8 193.6C373 190.7 355.3 185.7 337.4 183.1C341.4 193.7 341.3 212.2 342.6 224.1C344.9 244.1 343.4 264.4 342.9 284.5C342.4 303.4 340.3 332.2 329.6 348.4C329.1 347.3 327 345.3 326.5 344.2C311.6 365.6 307.1 391.2 298.2 415.1C296.7 413.9 294.4 413.4 292.9 411.7C291.7 427.8 294.5 439.6 300.2 454.5C303.5 463.2 305.4 475.1 309.3 484.2L309.9 483C310.1 482.6 310.3 482.1 310.6 481.7C311.1 480.8 312.9 481.1 312.7 482.3C312.7 482.5 312.6 482.6 312.6 482.8C325.2 484.7 317.9 448.5 317.9 444.4C317.8 435.4 318.3 426.2 321 417.5C326.2 400.9 334.8 386.1 344.3 371.6C372.6 328.6 390.2 284.8 380.2 232.3C379.9 230.5 382 229.7 383 230.7C384.8 231.5 386.5 232.4 388.2 233.4C385.4 224.2 381.8 216.2 375.8 208.3C374.8 207 376.9 205.5 378.1 206.6C385.9 214 391.5 225.3 391.7 236.2C391.7 237.1 390.6 237.8 389.8 237.3C387.8 236 385.9 234.8 383.9 233.5C384.9 238.2 385.8 243 386.3 247.7C386.4 247.7 386.5 247.6 386.6 247.6C427.1 256.1 463.6 251.2 503.2 241.7C497.7 234.8 491.6 228.6 484.8 223.6C484.2 223.1 483.9 222 484.8 221.6C498.8 215.4 467.7 211.7 466 211.6C465.2 211.5 465.2 210.3 466 210.3C476.5 210.2 485.3 212.7 494.4 217.7C495.1 218.1 495.1 219.2 494.4 219.6C484.6 224.3 495.5 227.2 499.5 232C504.1 237.5 508.3 243.2 511.8 249.6C519.1 262.8 526.6 276.9 530.7 291.6C531.8 292.1 532.2 293.6 531.6 294.5C535.1 308 536.9 322 533.9 335.8C533 339.7 532 343.7 530.9 347.6C530.9 347.9 530.9 348.2 530.7 348.4L530.6 348.5C526.2 365 521.5 381.7 527.5 398.1C528.1 398.2 528.6 398.6 528.6 399.3V399.7C528.9 397.8 529.6 396 530.6 394.3C531.2 393.2 533.1 393.1 533.7 394.3C534.8 396.7 536 399.2 537.1 401.6C539.3 399.2 541.5 396.8 544.1 394.8C543.1 386.9 542.9 378.9 544.4 370.7C547.1 355.9 553.2 342.7 555.5 328.1C555.3 328.7 555.2 329.4 555 330C554.7 331.1 552.9 330.9 552.9 329.7C553 327.4 553.3 325.1 553.6 322.8C553.8 321.4 555.4 321.5 556.2 322.3C556.3 320.9 556.4 319.5 556.4 318.1C559.4 319.6 562.8 322.6 565.9 324.4C565.9 301.2 563.1 276.5 559.5 253.5C564.8 253.8 569.6 255.1 574.6 254.6V254.6ZM320.6 389.7C320.3 390.7 320 391.6 319.7 392.6C319.3 393.7 317.5 393.6 317.6 392.3C317.7 391.3 317.8 390.3 317.8 389.3C317.9 387.2 321.2 387.8 320.6 389.7V389.7ZM355.3 272.8C355.1 274 353 274 352.8 272.8C352.5 270.3 352.4 267.9 352.4 265.4C352.4 263.3 355.8 263.3 355.7 265.4C355.6 267.9 355.6 270.4 355.3 272.8V272.8ZM431.9 213.9C429.7 215.1 427.4 215.6 424.8 215.6C422.8 215.6 422.8 212.5 424.8 212.6C426.9 212.7 428.9 212.3 431 211.8C432.3 211.4 433.2 213.2 431.9 213.9V213.9ZM544.4 235.3C543.7 233.7 543.1 232.1 542.6 230.4C542 228.3 545.3 227.4 545.8 229.5C546.2 231.2 546.5 232.9 546.7 234.6C546.7 235.9 544.9 236.4 544.4 235.3V235.3Z" fill="#9b388a"/>
</svg>
